<svg xmlns="http://www.w3.org/2000/svg" width="592" height="372" style="background:#0a0a0d">
<text x="20" y="22" fill="#4af" font-family="monospace" font-size="14">AMNI-CALC SEAL ANIMATION — OLD (floor-pinned) vs NEW (midplane-centered)</text><g transform="translate(40 40)">
<rect x="40" y="40" width="104" height="96" fill="#1a1a20" stroke="#666"/>
<line x1="40" y1="48" x2="144" y2="48" stroke="#999" stroke-dasharray="3 3"/>
<rect x="40" y="40" width="104" height="8" fill="#888" fill-opacity="0.2"/>
<path d="M 135.19 98.68 L 134.97 102.45 L 134.30 106.17 L 133.20 109.80 L 131.69 113.30 L 129.80 116.63 L 127.54 119.76 L 124.96 122.66 L 122.08 125.32 L 118.93 127.71 L 115.54 129.82 L 111.95 131.63 L 108.19 133.12 L 104.27 134.22 L 100.22 134.81 L 96.11 134.97 L 92.00 134.99 L 87.89 134.97 L 83.78 134.81 L 79.73 134.22 L 75.81 133.12 L 72.05 131.63 L 68.46 129.82 L 65.07 127.71 L 61.92 125.32 L 59.04 122.66 L 56.46 119.76 L 54.20 116.63 L 52.31 113.30 L 50.80 109.80 L 49.70 106.17 L 49.03 102.45 L 48.81 98.68 L 49.03 94.91 L 49.70 91.19 L 50.80 87.56 L 52.31 84.06 L 54.20 80.73 L 56.46 77.60 L 59.04 74.69 L 61.93 72.03 L 65.09 69.64 L 68.48 67.53 L 72.08 65.73 L 75.85 64.23 L 79.76 63.05 L 83.78 62.20 L 87.87 61.69 L 92.00 61.52 L 96.13 61.69 L 100.22 62.20 L 104.24 63.05 L 108.15 64.23 L 111.92 65.73 L 115.52 67.53 L 118.91 69.64 L 122.07 72.03 L 124.96 74.69 L 127.54 77.60 L 129.80 80.73 L 131.69 84.06 L 133.20 87.56 L 134.30 91.19 L 134.97 94.91 Z" fill="#ff6b3566" stroke="#ff6b35" stroke-width="1.5"/>
<circle cx="135.19" cy="98.68" r="1.5" fill="#ffb347"/><circle cx="134.97" cy="102.45" r="1.5" fill="#ffb347"/><circle cx="134.30" cy="106.17" r="1.5" fill="#ffb347"/><circle cx="133.20" cy="109.80" r="1.5" fill="#ffb347"/><circle cx="131.69" cy="113.30" r="1.5" fill="#ffb347"/><circle cx="129.80" cy="116.63" r="1.5" fill="#ffb347"/><circle cx="127.54" cy="119.76" r="1.5" fill="#ffb347"/><circle cx="124.96" cy="122.66" r="1.5" fill="#ffb347"/><circle cx="122.08" cy="125.32" r="1.5" fill="#ffb347"/><circle cx="118.93" cy="127.71" r="1.5" fill="#ffb347"/><circle cx="115.54" cy="129.82" r="1.5" fill="#ffb347"/><circle cx="111.95" cy="131.63" r="1.5" fill="#ffb347"/><circle cx="108.19" cy="133.12" r="1.5" fill="#ffb347"/><circle cx="104.27" cy="134.22" r="1.5" fill="#ffb347"/><circle cx="100.22" cy="134.81" r="1.5" fill="#ffb347"/><circle cx="96.11" cy="134.97" r="1.5" fill="#ffb347"/><circle cx="92.00" cy="134.99" r="1.5" fill="#ffb347"/><circle cx="87.89" cy="134.97" r="1.5" fill="#ffb347"/><circle cx="83.78" cy="134.81" r="1.5" fill="#ffb347"/><circle cx="79.73" cy="134.22" r="1.5" fill="#ffb347"/><circle cx="75.81" cy="133.12" r="1.5" fill="#ffb347"/><circle cx="72.05" cy="131.63" r="1.5" fill="#ffb347"/><circle cx="68.46" cy="129.82" r="1.5" fill="#ffb347"/><circle cx="65.07" cy="127.71" r="1.5" fill="#ffb347"/><circle cx="61.92" cy="125.32" r="1.5" fill="#ffb347"/><circle cx="59.04" cy="122.66" r="1.5" fill="#ffb347"/><circle cx="56.46" cy="119.76" r="1.5" fill="#ffb347"/><circle cx="54.20" cy="116.63" r="1.5" fill="#ffb347"/><circle cx="52.31" cy="113.30" r="1.5" fill="#ffb347"/><circle cx="50.80" cy="109.80" r="1.5" fill="#ffb347"/><circle cx="49.70" cy="106.17" r="1.5" fill="#ffb347"/><circle cx="49.03" cy="102.45" r="1.5" fill="#ffb347"/><circle cx="48.81" cy="98.68" r="1.5" fill="#ffb347"/><circle cx="49.03" cy="94.91" r="1.5" fill="#ffb347"/><circle cx="49.70" cy="91.19" r="1.5" fill="#ffb347"/><circle cx="50.80" cy="87.56" r="1.5" fill="#ffb347"/><circle cx="52.31" cy="84.06" r="1.5" fill="#ffb347"/><circle cx="54.20" cy="80.73" r="1.5" fill="#ffb347"/><circle cx="56.46" cy="77.60" r="1.5" fill="#ffb347"/><circle cx="59.04" cy="74.69" r="1.5" fill="#ffb347"/><circle cx="61.93" cy="72.03" r="1.5" fill="#ffb347"/><circle cx="65.09" cy="69.64" r="1.5" fill="#ffb347"/><circle cx="68.48" cy="67.53" r="1.5" fill="#ffb347"/><circle cx="72.08" cy="65.73" r="1.5" fill="#ffb347"/><circle cx="75.85" cy="64.23" r="1.5" fill="#ffb347"/><circle cx="79.76" cy="63.05" r="1.5" fill="#ffb347"/><circle cx="83.78" cy="62.20" r="1.5" fill="#ffb347"/><circle cx="87.87" cy="61.69" r="1.5" fill="#ffb347"/><circle cx="92.00" cy="61.52" r="1.5" fill="#ffb347"/><circle cx="96.13" cy="61.69" r="1.5" fill="#ffb347"/><circle cx="100.22" cy="62.20" r="1.5" fill="#ffb347"/><circle cx="104.24" cy="63.05" r="1.5" fill="#ffb347"/><circle cx="108.15" cy="64.23" r="1.5" fill="#ffb347"/><circle cx="111.92" cy="65.73" r="1.5" fill="#ffb347"/><circle cx="115.52" cy="67.53" r="1.5" fill="#ffb347"/><circle cx="118.91" cy="69.64" r="1.5" fill="#ffb347"/><circle cx="122.07" cy="72.03" r="1.5" fill="#ffb347"/><circle cx="124.96" cy="74.69" r="1.5" fill="#ffb347"/><circle cx="127.54" cy="77.60" r="1.5" fill="#ffb347"/><circle cx="129.80" cy="80.73" r="1.5" fill="#ffb347"/><circle cx="131.69" cy="84.06" r="1.5" fill="#ffb347"/><circle cx="133.20" cy="87.56" r="1.5" fill="#ffb347"/><circle cx="134.30" cy="91.19" r="1.5" fill="#ffb347"/><circle cx="134.97" cy="94.91" r="1.5" fill="#ffb347"/>
<text x="92" y="34" fill="#ddd" font-family="monospace" font-size="9" text-anchor="middle">OLD — 10%</text>
</g><g transform="translate(40 196)">
<rect x="40" y="40" width="104" height="96" fill="#1a1a20" stroke="#666"/>
<line x1="40" y1="48" x2="144" y2="48" stroke="#999" stroke-dasharray="3 3"/>
<rect x="40" y="40" width="104" height="8" fill="#888" fill-opacity="0.2"/>
<path d="M 132.00 91.50 L 131.81 95.42 L 131.23 99.30 L 130.28 103.11 L 128.96 106.81 L 127.28 110.36 L 125.26 113.72 L 122.92 116.88 L 120.28 119.78 L 117.38 122.42 L 114.22 124.76 L 110.86 126.78 L 107.31 128.46 L 103.61 129.78 L 99.80 130.73 L 95.92 131.31 L 92.00 131.50 L 88.08 131.31 L 84.20 130.73 L 80.39 129.78 L 76.69 128.46 L 73.14 126.78 L 69.78 124.76 L 66.62 122.42 L 63.72 119.78 L 61.08 116.88 L 58.74 113.72 L 56.72 110.36 L 55.04 106.81 L 53.72 103.11 L 52.77 99.30 L 52.19 95.42 L 52.00 91.50 L 52.19 87.58 L 52.77 83.70 L 53.72 79.89 L 55.04 76.19 L 56.72 72.64 L 58.74 69.28 L 61.08 66.12 L 63.72 63.22 L 66.62 60.58 L 69.78 58.24 L 73.14 56.22 L 76.69 54.54 L 80.39 53.22 L 84.20 52.27 L 88.08 51.69 L 92.00 51.50 L 95.92 51.69 L 99.80 52.27 L 103.61 53.22 L 107.31 54.54 L 110.86 56.22 L 114.22 58.24 L 117.38 60.58 L 120.28 63.22 L 122.92 66.12 L 125.26 69.28 L 127.28 72.64 L 128.96 76.19 L 130.28 79.89 L 131.23 83.70 L 131.81 87.58 Z" fill="#ff6b3566" stroke="#ff6b35" stroke-width="1.5"/>
<circle cx="132.00" cy="91.50" r="1.5" fill="#ffb347"/><circle cx="131.81" cy="95.42" r="1.5" fill="#ffb347"/><circle cx="131.23" cy="99.30" r="1.5" fill="#ffb347"/><circle cx="130.28" cy="103.11" r="1.5" fill="#ffb347"/><circle cx="128.96" cy="106.81" r="1.5" fill="#ffb347"/><circle cx="127.28" cy="110.36" r="1.5" fill="#ffb347"/><circle cx="125.26" cy="113.72" r="1.5" fill="#ffb347"/><circle cx="122.92" cy="116.88" r="1.5" fill="#ffb347"/><circle cx="120.28" cy="119.78" r="1.5" fill="#ffb347"/><circle cx="117.38" cy="122.42" r="1.5" fill="#ffb347"/><circle cx="114.22" cy="124.76" r="1.5" fill="#ffb347"/><circle cx="110.86" cy="126.78" r="1.5" fill="#ffb347"/><circle cx="107.31" cy="128.46" r="1.5" fill="#ffb347"/><circle cx="103.61" cy="129.78" r="1.5" fill="#ffb347"/><circle cx="99.80" cy="130.73" r="1.5" fill="#ffb347"/><circle cx="95.92" cy="131.31" r="1.5" fill="#ffb347"/><circle cx="92.00" cy="131.50" r="1.5" fill="#ffb347"/><circle cx="88.08" cy="131.31" r="1.5" fill="#ffb347"/><circle cx="84.20" cy="130.73" r="1.5" fill="#ffb347"/><circle cx="80.39" cy="129.78" r="1.5" fill="#ffb347"/><circle cx="76.69" cy="128.46" r="1.5" fill="#ffb347"/><circle cx="73.14" cy="126.78" r="1.5" fill="#ffb347"/><circle cx="69.78" cy="124.76" r="1.5" fill="#ffb347"/><circle cx="66.62" cy="122.42" r="1.5" fill="#ffb347"/><circle cx="63.72" cy="119.78" r="1.5" fill="#ffb347"/><circle cx="61.08" cy="116.88" r="1.5" fill="#ffb347"/><circle cx="58.74" cy="113.72" r="1.5" fill="#ffb347"/><circle cx="56.72" cy="110.36" r="1.5" fill="#ffb347"/><circle cx="55.04" cy="106.81" r="1.5" fill="#ffb347"/><circle cx="53.72" cy="103.11" r="1.5" fill="#ffb347"/><circle cx="52.77" cy="99.30" r="1.5" fill="#ffb347"/><circle cx="52.19" cy="95.42" r="1.5" fill="#ffb347"/><circle cx="52.00" cy="91.50" r="1.5" fill="#ffb347"/><circle cx="52.19" cy="87.58" r="1.5" fill="#ffb347"/><circle cx="52.77" cy="83.70" r="1.5" fill="#ffb347"/><circle cx="53.72" cy="79.89" r="1.5" fill="#ffb347"/><circle cx="55.04" cy="76.19" r="1.5" fill="#ffb347"/><circle cx="56.72" cy="72.64" r="1.5" fill="#ffb347"/><circle cx="58.74" cy="69.28" r="1.5" fill="#ffb347"/><circle cx="61.08" cy="66.12" r="1.5" fill="#ffb347"/><circle cx="63.72" cy="63.22" r="1.5" fill="#ffb347"/><circle cx="66.62" cy="60.58" r="1.5" fill="#ffb347"/><circle cx="69.78" cy="58.24" r="1.5" fill="#ffb347"/><circle cx="73.14" cy="56.22" r="1.5" fill="#ffb347"/><circle cx="76.69" cy="54.54" r="1.5" fill="#ffb347"/><circle cx="80.39" cy="53.22" r="1.5" fill="#ffb347"/><circle cx="84.20" cy="52.27" r="1.5" fill="#ffb347"/><circle cx="88.08" cy="51.69" r="1.5" fill="#ffb347"/><circle cx="92.00" cy="51.50" r="1.5" fill="#ffb347"/><circle cx="95.92" cy="51.69" r="1.5" fill="#ffb347"/><circle cx="99.80" cy="52.27" r="1.5" fill="#ffb347"/><circle cx="103.61" cy="53.22" r="1.5" fill="#ffb347"/><circle cx="107.31" cy="54.54" r="1.5" fill="#ffb347"/><circle cx="110.86" cy="56.22" r="1.5" fill="#ffb347"/><circle cx="114.22" cy="58.24" r="1.5" fill="#ffb347"/><circle cx="117.38" cy="60.58" r="1.5" fill="#ffb347"/><circle cx="120.28" cy="63.22" r="1.5" fill="#ffb347"/><circle cx="122.92" cy="66.12" r="1.5" fill="#ffb347"/><circle cx="125.26" cy="69.28" r="1.5" fill="#ffb347"/><circle cx="127.28" cy="72.64" r="1.5" fill="#ffb347"/><circle cx="128.96" cy="76.19" r="1.5" fill="#ffb347"/><circle cx="130.28" cy="79.89" r="1.5" fill="#ffb347"/><circle cx="131.23" cy="83.70" r="1.5" fill="#ffb347"/><circle cx="131.81" cy="87.58" r="1.5" fill="#ffb347"/>
<text x="92" y="34" fill="#ddd" font-family="monospace" font-size="9" text-anchor="middle">NEW — 10%</text>
</g><g transform="translate(224 40)">
<rect x="40" y="40" width="104" height="96" fill="#1a1a20" stroke="#666"/>
<line x1="40" y1="58.32" x2="144" y2="58.32" stroke="#999" stroke-dasharray="3 3"/>
<rect x="40" y="40" width="104" height="18.32" fill="#888" fill-opacity="0.2"/>
<path d="M 140.18 103.43 L 139.89 107.06 L 139.03 110.61 L 137.66 114.03 L 135.82 117.25 L 133.57 120.27 L 130.97 123.06 L 128.04 125.62 L 124.84 127.94 L 121.37 130.01 L 117.67 131.82 L 113.75 133.30 L 109.60 134.31 L 105.29 134.78 L 100.90 134.94 L 96.46 134.99 L 92.00 134.99 L 87.54 134.99 L 83.10 134.94 L 78.71 134.78 L 74.40 134.31 L 70.25 133.30 L 66.33 131.82 L 62.63 130.01 L 59.16 127.94 L 55.96 125.62 L 53.03 123.06 L 50.43 120.27 L 48.18 117.25 L 46.34 114.03 L 44.97 110.61 L 44.11 107.06 L 43.82 103.43 L 44.11 99.80 L 44.97 96.24 L 46.35 92.83 L 48.18 89.60 L 50.43 86.58 L 53.04 83.79 L 55.97 81.23 L 59.19 78.91 L 62.68 76.83 L 66.39 75.00 L 70.32 73.42 L 74.43 72.12 L 78.69 71.09 L 83.06 70.35 L 87.51 69.91 L 92.00 69.76 L 96.49 69.91 L 100.94 70.35 L 105.31 71.09 L 109.57 72.12 L 113.68 73.42 L 117.61 75.00 L 121.32 76.83 L 124.81 78.91 L 128.03 81.23 L 130.96 83.79 L 133.57 86.58 L 135.82 89.60 L 137.65 92.83 L 139.03 96.24 L 139.89 99.80 Z" fill="#ff6b3566" stroke="#ff6b35" stroke-width="1.5"/>
<circle cx="140.18" cy="103.43" r="1.5" fill="#ffb347"/><circle cx="139.89" cy="107.06" r="1.5" fill="#ffb347"/><circle cx="139.03" cy="110.61" r="1.5" fill="#ffb347"/><circle cx="137.66" cy="114.03" r="1.5" fill="#ffb347"/><circle cx="135.82" cy="117.25" r="1.5" fill="#ffb347"/><circle cx="133.57" cy="120.27" r="1.5" fill="#ffb347"/><circle cx="130.97" cy="123.06" r="1.5" fill="#ffb347"/><circle cx="128.04" cy="125.62" r="1.5" fill="#ffb347"/><circle cx="124.84" cy="127.94" r="1.5" fill="#ffb347"/><circle cx="121.37" cy="130.01" r="1.5" fill="#ffb347"/><circle cx="117.67" cy="131.82" r="1.5" fill="#ffb347"/><circle cx="113.75" cy="133.30" r="1.5" fill="#ffb347"/><circle cx="109.60" cy="134.31" r="1.5" fill="#ffb347"/><circle cx="105.29" cy="134.78" r="1.5" fill="#ffb347"/><circle cx="100.90" cy="134.94" r="1.5" fill="#ffb347"/><circle cx="96.46" cy="134.99" r="1.5" fill="#ffb347"/><circle cx="92.00" cy="134.99" r="1.5" fill="#ffb347"/><circle cx="87.54" cy="134.99" r="1.5" fill="#ffb347"/><circle cx="83.10" cy="134.94" r="1.5" fill="#ffb347"/><circle cx="78.71" cy="134.78" r="1.5" fill="#ffb347"/><circle cx="74.40" cy="134.31" r="1.5" fill="#ffb347"/><circle cx="70.25" cy="133.30" r="1.5" fill="#ffb347"/><circle cx="66.33" cy="131.82" r="1.5" fill="#ffb347"/><circle cx="62.63" cy="130.01" r="1.5" fill="#ffb347"/><circle cx="59.16" cy="127.94" r="1.5" fill="#ffb347"/><circle cx="55.96" cy="125.62" r="1.5" fill="#ffb347"/><circle cx="53.03" cy="123.06" r="1.5" fill="#ffb347"/><circle cx="50.43" cy="120.27" r="1.5" fill="#ffb347"/><circle cx="48.18" cy="117.25" r="1.5" fill="#ffb347"/><circle cx="46.34" cy="114.03" r="1.5" fill="#ffb347"/><circle cx="44.97" cy="110.61" r="1.5" fill="#ffb347"/><circle cx="44.11" cy="107.06" r="1.5" fill="#ffb347"/><circle cx="43.82" cy="103.43" r="1.5" fill="#ffb347"/><circle cx="44.11" cy="99.80" r="1.5" fill="#ffb347"/><circle cx="44.97" cy="96.24" r="1.5" fill="#ffb347"/><circle cx="46.35" cy="92.83" r="1.5" fill="#ffb347"/><circle cx="48.18" cy="89.60" r="1.5" fill="#ffb347"/><circle cx="50.43" cy="86.58" r="1.5" fill="#ffb347"/><circle cx="53.04" cy="83.79" r="1.5" fill="#ffb347"/><circle cx="55.97" cy="81.23" r="1.5" fill="#ffb347"/><circle cx="59.19" cy="78.91" r="1.5" fill="#ffb347"/><circle cx="62.68" cy="76.83" r="1.5" fill="#ffb347"/><circle cx="66.39" cy="75.00" r="1.5" fill="#ffb347"/><circle cx="70.32" cy="73.42" r="1.5" fill="#ffb347"/><circle cx="74.43" cy="72.12" r="1.5" fill="#ffb347"/><circle cx="78.69" cy="71.09" r="1.5" fill="#ffb347"/><circle cx="83.06" cy="70.35" r="1.5" fill="#ffb347"/><circle cx="87.51" cy="69.91" r="1.5" fill="#ffb347"/><circle cx="92.00" cy="69.76" r="1.5" fill="#ffb347"/><circle cx="96.49" cy="69.91" r="1.5" fill="#ffb347"/><circle cx="100.94" cy="70.35" r="1.5" fill="#ffb347"/><circle cx="105.31" cy="71.09" r="1.5" fill="#ffb347"/><circle cx="109.57" cy="72.12" r="1.5" fill="#ffb347"/><circle cx="113.68" cy="73.42" r="1.5" fill="#ffb347"/><circle cx="117.61" cy="75.00" r="1.5" fill="#ffb347"/><circle cx="121.32" cy="76.83" r="1.5" fill="#ffb347"/><circle cx="124.81" cy="78.91" r="1.5" fill="#ffb347"/><circle cx="128.03" cy="81.23" r="1.5" fill="#ffb347"/><circle cx="130.96" cy="83.79" r="1.5" fill="#ffb347"/><circle cx="133.57" cy="86.58" r="1.5" fill="#ffb347"/><circle cx="135.82" cy="89.60" r="1.5" fill="#ffb347"/><circle cx="137.65" cy="92.83" r="1.5" fill="#ffb347"/><circle cx="139.03" cy="96.24" r="1.5" fill="#ffb347"/><circle cx="139.89" cy="99.80" r="1.5" fill="#ffb347"/>
<text x="92" y="34" fill="#ddd" font-family="monospace" font-size="9" text-anchor="middle">OLD — 22.9%</text>
</g><g transform="translate(224 196)">
<rect x="40" y="40" width="104" height="96" fill="#1a1a20" stroke="#666"/>
<line x1="40" y1="58.32" x2="144" y2="58.32" stroke="#999" stroke-dasharray="3 3"/>
<rect x="40" y="40" width="104" height="18.32" fill="#888" fill-opacity="0.2"/>
<path d="M 132.38 96.51 L 132.18 100.47 L 131.60 104.39 L 130.64 108.24 L 129.30 111.97 L 127.61 115.55 L 125.57 118.95 L 123.21 122.13 L 120.55 125.06 L 117.62 127.72 L 114.45 130.08 L 111.07 132.11 L 107.53 133.80 L 103.82 135.00 L 99.91 135.00 L 95.97 135.00 L 92.00 135.00 L 88.03 135.00 L 84.09 135.00 L 80.18 135.00 L 76.47 133.80 L 72.93 132.11 L 69.55 130.08 L 66.38 127.72 L 63.45 125.06 L 60.79 122.13 L 58.43 118.95 L 56.39 115.55 L 54.70 111.97 L 53.36 108.24 L 52.40 104.39 L 51.82 100.47 L 51.62 96.51 L 51.82 92.56 L 52.40 88.64 L 53.36 84.79 L 54.70 81.06 L 56.39 77.48 L 58.43 74.08 L 60.78 70.90 L 63.44 67.97 L 66.36 65.32 L 69.51 62.97 L 72.86 60.94 L 76.37 59.32 L 80.26 59.32 L 84.13 59.32 L 88.06 59.32 L 92.00 59.32 L 95.94 59.32 L 99.87 59.32 L 103.74 59.32 L 107.63 59.32 L 111.14 60.94 L 114.49 62.97 L 117.64 65.32 L 120.56 67.97 L 123.22 70.90 L 125.57 74.08 L 127.61 77.48 L 129.30 81.06 L 130.64 84.79 L 131.60 88.64 L 132.18 92.56 Z" fill="#ff6b3566" stroke="#ff6b35" stroke-width="1.5"/>
<circle cx="132.38" cy="96.51" r="1.5" fill="#ffb347"/><circle cx="132.18" cy="100.47" r="1.5" fill="#ffb347"/><circle cx="131.60" cy="104.39" r="1.5" fill="#ffb347"/><circle cx="130.64" cy="108.24" r="1.5" fill="#ffb347"/><circle cx="129.30" cy="111.97" r="1.5" fill="#ffb347"/><circle cx="127.61" cy="115.55" r="1.5" fill="#ffb347"/><circle cx="125.57" cy="118.95" r="1.5" fill="#ffb347"/><circle cx="123.21" cy="122.13" r="1.5" fill="#ffb347"/><circle cx="120.55" cy="125.06" r="1.5" fill="#ffb347"/><circle cx="117.62" cy="127.72" r="1.5" fill="#ffb347"/><circle cx="114.45" cy="130.08" r="1.5" fill="#ffb347"/><circle cx="111.07" cy="132.11" r="1.5" fill="#ffb347"/><circle cx="107.53" cy="133.80" r="1.5" fill="#ffb347"/><circle cx="103.82" cy="135.00" r="1.5" fill="#ffb347"/><circle cx="99.91" cy="135.00" r="1.5" fill="#ffb347"/><circle cx="95.97" cy="135.00" r="1.5" fill="#ffb347"/><circle cx="92.00" cy="135.00" r="1.5" fill="#ffb347"/><circle cx="88.03" cy="135.00" r="1.5" fill="#ffb347"/><circle cx="84.09" cy="135.00" r="1.5" fill="#ffb347"/><circle cx="80.18" cy="135.00" r="1.5" fill="#ffb347"/><circle cx="76.47" cy="133.80" r="1.5" fill="#ffb347"/><circle cx="72.93" cy="132.11" r="1.5" fill="#ffb347"/><circle cx="69.55" cy="130.08" r="1.5" fill="#ffb347"/><circle cx="66.38" cy="127.72" r="1.5" fill="#ffb347"/><circle cx="63.45" cy="125.06" r="1.5" fill="#ffb347"/><circle cx="60.79" cy="122.13" r="1.5" fill="#ffb347"/><circle cx="58.43" cy="118.95" r="1.5" fill="#ffb347"/><circle cx="56.39" cy="115.55" r="1.5" fill="#ffb347"/><circle cx="54.70" cy="111.97" r="1.5" fill="#ffb347"/><circle cx="53.36" cy="108.24" r="1.5" fill="#ffb347"/><circle cx="52.40" cy="104.39" r="1.5" fill="#ffb347"/><circle cx="51.82" cy="100.47" r="1.5" fill="#ffb347"/><circle cx="51.62" cy="96.51" r="1.5" fill="#ffb347"/><circle cx="51.82" cy="92.56" r="1.5" fill="#ffb347"/><circle cx="52.40" cy="88.64" r="1.5" fill="#ffb347"/><circle cx="53.36" cy="84.79" r="1.5" fill="#ffb347"/><circle cx="54.70" cy="81.06" r="1.5" fill="#ffb347"/><circle cx="56.39" cy="77.48" r="1.5" fill="#ffb347"/><circle cx="58.43" cy="74.08" r="1.5" fill="#ffb347"/><circle cx="60.78" cy="70.90" r="1.5" fill="#ffb347"/><circle cx="63.44" cy="67.97" r="1.5" fill="#ffb347"/><circle cx="66.36" cy="65.32" r="1.5" fill="#ffb347"/><circle cx="69.51" cy="62.97" r="1.5" fill="#ffb347"/><circle cx="72.86" cy="60.94" r="1.5" fill="#ffb347"/><circle cx="76.37" cy="59.32" r="1.5" fill="#ffb347"/><circle cx="80.26" cy="59.32" r="1.5" fill="#ffb347"/><circle cx="84.13" cy="59.32" r="1.5" fill="#ffb347"/><circle cx="88.06" cy="59.32" r="1.5" fill="#ffb347"/><circle cx="92.00" cy="59.32" r="1.5" fill="#ffb347"/><circle cx="95.94" cy="59.32" r="1.5" fill="#ffb347"/><circle cx="99.87" cy="59.32" r="1.5" fill="#ffb347"/><circle cx="103.74" cy="59.32" r="1.5" fill="#ffb347"/><circle cx="107.63" cy="59.32" r="1.5" fill="#ffb347"/><circle cx="111.14" cy="60.94" r="1.5" fill="#ffb347"/><circle cx="114.49" cy="62.97" r="1.5" fill="#ffb347"/><circle cx="117.64" cy="65.32" r="1.5" fill="#ffb347"/><circle cx="120.56" cy="67.97" r="1.5" fill="#ffb347"/><circle cx="123.22" cy="70.90" r="1.5" fill="#ffb347"/><circle cx="125.57" cy="74.08" r="1.5" fill="#ffb347"/><circle cx="127.61" cy="77.48" r="1.5" fill="#ffb347"/><circle cx="129.30" cy="81.06" r="1.5" fill="#ffb347"/><circle cx="130.64" cy="84.79" r="1.5" fill="#ffb347"/><circle cx="131.60" cy="88.64" r="1.5" fill="#ffb347"/><circle cx="132.18" cy="92.56" r="1.5" fill="#ffb347"/>
<text x="92" y="34" fill="#ddd" font-family="monospace" font-size="9" text-anchor="middle">NEW — 22.9%</text>
</g><g transform="translate(408 40)">
<rect x="40" y="40" width="104" height="96" fill="#1a1a20" stroke="#666"/>
<line x1="40" y1="68" x2="144" y2="68" stroke="#999" stroke-dasharray="3 3"/>
<rect x="40" y="40" width="104" height="28" fill="#888" fill-opacity="0.2"/>
<path d="M 143.00 107.89 L 143.00 111.23 L 143.00 115.25 L 143.00 118.46 L 140.56 121.51 L 138.38 124.10 L 135.20 126.50 L 132.07 128.62 L 128.51 130.63 L 124.72 132.35 L 120.59 133.70 L 116.18 134.53 L 111.57 134.90 L 106.80 135.00 L 101.93 135.00 L 96.99 135.00 L 92.00 135.00 L 87.01 135.00 L 82.07 135.00 L 77.20 135.00 L 72.43 134.90 L 67.82 134.53 L 63.41 133.70 L 59.28 132.35 L 55.49 130.63 L 51.93 128.62 L 48.80 126.50 L 45.62 124.10 L 43.44 121.51 L 41.00 118.46 L 41.00 115.25 L 41.00 111.23 L 41.00 107.89 L 41.00 104.54 L 41.00 100.53 L 41.00 97.30 L 43.44 94.27 L 45.65 91.67 L 48.83 89.26 L 51.99 87.13 L 55.57 85.11 L 59.38 83.31 L 63.48 81.70 L 67.82 80.31 L 72.38 79.14 L 77.12 78.21 L 82.00 77.54 L 86.97 77.13 L 92.00 77.00 L 97.03 77.13 L 102.00 77.54 L 106.88 78.21 L 111.62 79.14 L 116.18 80.31 L 120.52 81.70 L 124.62 83.31 L 128.43 85.11 L 132.01 87.13 L 135.17 89.26 L 138.35 91.67 L 140.56 94.27 L 143.00 97.30 L 143.00 100.53 L 143.00 104.54 Z" fill="#ff6b3566" stroke="#ff6b35" stroke-width="1.5"/>
<circle cx="143.00" cy="107.89" r="1.5" fill="#ffb347"/><circle cx="143.00" cy="111.23" r="1.5" fill="#ffb347"/><circle cx="143.00" cy="115.25" r="1.5" fill="#ffb347"/><circle cx="143.00" cy="118.46" r="1.5" fill="#ffb347"/><circle cx="140.56" cy="121.51" r="1.5" fill="#ffb347"/><circle cx="138.38" cy="124.10" r="1.5" fill="#ffb347"/><circle cx="135.20" cy="126.50" r="1.5" fill="#ffb347"/><circle cx="132.07" cy="128.62" r="1.5" fill="#ffb347"/><circle cx="128.51" cy="130.63" r="1.5" fill="#ffb347"/><circle cx="124.72" cy="132.35" r="1.5" fill="#ffb347"/><circle cx="120.59" cy="133.70" r="1.5" fill="#ffb347"/><circle cx="116.18" cy="134.53" r="1.5" fill="#ffb347"/><circle cx="111.57" cy="134.90" r="1.5" fill="#ffb347"/><circle cx="106.80" cy="135.00" r="1.5" fill="#ffb347"/><circle cx="101.93" cy="135.00" r="1.5" fill="#ffb347"/><circle cx="96.99" cy="135.00" r="1.5" fill="#ffb347"/><circle cx="92.00" cy="135.00" r="1.5" fill="#ffb347"/><circle cx="87.01" cy="135.00" r="1.5" fill="#ffb347"/><circle cx="82.07" cy="135.00" r="1.5" fill="#ffb347"/><circle cx="77.20" cy="135.00" r="1.5" fill="#ffb347"/><circle cx="72.43" cy="134.90" r="1.5" fill="#ffb347"/><circle cx="67.82" cy="134.53" r="1.5" fill="#ffb347"/><circle cx="63.41" cy="133.70" r="1.5" fill="#ffb347"/><circle cx="59.28" cy="132.35" r="1.5" fill="#ffb347"/><circle cx="55.49" cy="130.63" r="1.5" fill="#ffb347"/><circle cx="51.93" cy="128.62" r="1.5" fill="#ffb347"/><circle cx="48.80" cy="126.50" r="1.5" fill="#ffb347"/><circle cx="45.62" cy="124.10" r="1.5" fill="#ffb347"/><circle cx="43.44" cy="121.51" r="1.5" fill="#ffb347"/><circle cx="41.00" cy="118.46" r="1.5" fill="#ffb347"/><circle cx="41.00" cy="115.25" r="1.5" fill="#ffb347"/><circle cx="41.00" cy="111.23" r="1.5" fill="#ffb347"/><circle cx="41.00" cy="107.89" r="1.5" fill="#ffb347"/><circle cx="41.00" cy="104.54" r="1.5" fill="#ffb347"/><circle cx="41.00" cy="100.53" r="1.5" fill="#ffb347"/><circle cx="41.00" cy="97.30" r="1.5" fill="#ffb347"/><circle cx="43.44" cy="94.27" r="1.5" fill="#ffb347"/><circle cx="45.65" cy="91.67" r="1.5" fill="#ffb347"/><circle cx="48.83" cy="89.26" r="1.5" fill="#ffb347"/><circle cx="51.99" cy="87.13" r="1.5" fill="#ffb347"/><circle cx="55.57" cy="85.11" r="1.5" fill="#ffb347"/><circle cx="59.38" cy="83.31" r="1.5" fill="#ffb347"/><circle cx="63.48" cy="81.70" r="1.5" fill="#ffb347"/><circle cx="67.82" cy="80.31" r="1.5" fill="#ffb347"/><circle cx="72.38" cy="79.14" r="1.5" fill="#ffb347"/><circle cx="77.12" cy="78.21" r="1.5" fill="#ffb347"/><circle cx="82.00" cy="77.54" r="1.5" fill="#ffb347"/><circle cx="86.97" cy="77.13" r="1.5" fill="#ffb347"/><circle cx="92.00" cy="77.00" r="1.5" fill="#ffb347"/><circle cx="97.03" cy="77.13" r="1.5" fill="#ffb347"/><circle cx="102.00" cy="77.54" r="1.5" fill="#ffb347"/><circle cx="106.88" cy="78.21" r="1.5" fill="#ffb347"/><circle cx="111.62" cy="79.14" r="1.5" fill="#ffb347"/><circle cx="116.18" cy="80.31" r="1.5" fill="#ffb347"/><circle cx="120.52" cy="81.70" r="1.5" fill="#ffb347"/><circle cx="124.62" cy="83.31" r="1.5" fill="#ffb347"/><circle cx="128.43" cy="85.11" r="1.5" fill="#ffb347"/><circle cx="132.01" cy="87.13" r="1.5" fill="#ffb347"/><circle cx="135.17" cy="89.26" r="1.5" fill="#ffb347"/><circle cx="138.35" cy="91.67" r="1.5" fill="#ffb347"/><circle cx="140.56" cy="94.27" r="1.5" fill="#ffb347"/><circle cx="143.00" cy="97.30" r="1.5" fill="#ffb347"/><circle cx="143.00" cy="100.53" r="1.5" fill="#ffb347"/><circle cx="143.00" cy="104.54" r="1.5" fill="#ffb347"/>
<text x="92" y="34" fill="#ddd" font-family="monospace" font-size="9" text-anchor="middle">OLD — 35%</text>
</g><g transform="translate(408 196)">
<rect x="40" y="40" width="104" height="96" fill="#1a1a20" stroke="#666"/>
<line x1="40" y1="68" x2="144" y2="68" stroke="#999" stroke-dasharray="3 3"/>
<rect x="40" y="40" width="104" height="28" fill="#888" fill-opacity="0.2"/>
<path d="M 134.70 101.10 L 134.50 105.29 L 133.88 109.43 L 132.87 113.49 L 131.46 117.43 L 129.69 121.18 L 127.59 124.73 L 125.22 127.99 L 122.58 130.97 L 120.04 133.80 L 116.45 135.00 L 112.81 135.00 L 108.96 135.00 L 105.02 135.00 L 100.84 135.00 L 96.48 135.00 L 92.00 135.00 L 87.52 135.00 L 83.16 135.00 L 78.98 135.00 L 75.04 135.00 L 71.19 135.00 L 67.55 135.00 L 63.96 133.80 L 61.42 130.97 L 58.78 127.99 L 56.41 124.73 L 54.31 121.18 L 52.54 117.43 L 51.13 113.49 L 50.12 109.43 L 49.50 105.29 L 49.30 101.10 L 49.50 96.92 L 50.12 92.78 L 51.13 88.73 L 52.53 84.80 L 54.27 81.07 L 56.34 77.56 L 58.63 74.36 L 61.13 71.39 L 63.94 69.00 L 67.68 69.00 L 71.27 69.00 L 75.11 69.00 L 79.02 69.00 L 83.20 69.00 L 87.54 69.00 L 92.00 69.00 L 96.46 69.00 L 100.80 69.00 L 104.98 69.00 L 108.89 69.00 L 112.73 69.00 L 116.32 69.00 L 120.06 69.00 L 122.87 71.39 L 125.37 74.36 L 127.66 77.56 L 129.73 81.07 L 131.47 84.80 L 132.87 88.73 L 133.88 92.78 L 134.50 96.92 Z" fill="#ff6b3566" stroke="#ff6b35" stroke-width="1.5"/>
<circle cx="134.70" cy="101.10" r="1.5" fill="#ffb347"/><circle cx="134.50" cy="105.29" r="1.5" fill="#ffb347"/><circle cx="133.88" cy="109.43" r="1.5" fill="#ffb347"/><circle cx="132.87" cy="113.49" r="1.5" fill="#ffb347"/><circle cx="131.46" cy="117.43" r="1.5" fill="#ffb347"/><circle cx="129.69" cy="121.18" r="1.5" fill="#ffb347"/><circle cx="127.59" cy="124.73" r="1.5" fill="#ffb347"/><circle cx="125.22" cy="127.99" r="1.5" fill="#ffb347"/><circle cx="122.58" cy="130.97" r="1.5" fill="#ffb347"/><circle cx="120.04" cy="133.80" r="1.5" fill="#ffb347"/><circle cx="116.45" cy="135.00" r="1.5" fill="#ffb347"/><circle cx="112.81" cy="135.00" r="1.5" fill="#ffb347"/><circle cx="108.96" cy="135.00" r="1.5" fill="#ffb347"/><circle cx="105.02" cy="135.00" r="1.5" fill="#ffb347"/><circle cx="100.84" cy="135.00" r="1.5" fill="#ffb347"/><circle cx="96.48" cy="135.00" r="1.5" fill="#ffb347"/><circle cx="92.00" cy="135.00" r="1.5" fill="#ffb347"/><circle cx="87.52" cy="135.00" r="1.5" fill="#ffb347"/><circle cx="83.16" cy="135.00" r="1.5" fill="#ffb347"/><circle cx="78.98" cy="135.00" r="1.5" fill="#ffb347"/><circle cx="75.04" cy="135.00" r="1.5" fill="#ffb347"/><circle cx="71.19" cy="135.00" r="1.5" fill="#ffb347"/><circle cx="67.55" cy="135.00" r="1.5" fill="#ffb347"/><circle cx="63.96" cy="133.80" r="1.5" fill="#ffb347"/><circle cx="61.42" cy="130.97" r="1.5" fill="#ffb347"/><circle cx="58.78" cy="127.99" r="1.5" fill="#ffb347"/><circle cx="56.41" cy="124.73" r="1.5" fill="#ffb347"/><circle cx="54.31" cy="121.18" r="1.5" fill="#ffb347"/><circle cx="52.54" cy="117.43" r="1.5" fill="#ffb347"/><circle cx="51.13" cy="113.49" r="1.5" fill="#ffb347"/><circle cx="50.12" cy="109.43" r="1.5" fill="#ffb347"/><circle cx="49.50" cy="105.29" r="1.5" fill="#ffb347"/><circle cx="49.30" cy="101.10" r="1.5" fill="#ffb347"/><circle cx="49.50" cy="96.92" r="1.5" fill="#ffb347"/><circle cx="50.12" cy="92.78" r="1.5" fill="#ffb347"/><circle cx="51.13" cy="88.73" r="1.5" fill="#ffb347"/><circle cx="52.53" cy="84.80" r="1.5" fill="#ffb347"/><circle cx="54.27" cy="81.07" r="1.5" fill="#ffb347"/><circle cx="56.34" cy="77.56" r="1.5" fill="#ffb347"/><circle cx="58.63" cy="74.36" r="1.5" fill="#ffb347"/><circle cx="61.13" cy="71.39" r="1.5" fill="#ffb347"/><circle cx="63.94" cy="69.00" r="1.5" fill="#ffb347"/><circle cx="67.68" cy="69.00" r="1.5" fill="#ffb347"/><circle cx="71.27" cy="69.00" r="1.5" fill="#ffb347"/><circle cx="75.11" cy="69.00" r="1.5" fill="#ffb347"/><circle cx="79.02" cy="69.00" r="1.5" fill="#ffb347"/><circle cx="83.20" cy="69.00" r="1.5" fill="#ffb347"/><circle cx="87.54" cy="69.00" r="1.5" fill="#ffb347"/><circle cx="92.00" cy="69.00" r="1.5" fill="#ffb347"/><circle cx="96.46" cy="69.00" r="1.5" fill="#ffb347"/><circle cx="100.80" cy="69.00" r="1.5" fill="#ffb347"/><circle cx="104.98" cy="69.00" r="1.5" fill="#ffb347"/><circle cx="108.89" cy="69.00" r="1.5" fill="#ffb347"/><circle cx="112.73" cy="69.00" r="1.5" fill="#ffb347"/><circle cx="116.32" cy="69.00" r="1.5" fill="#ffb347"/><circle cx="120.06" cy="69.00" r="1.5" fill="#ffb347"/><circle cx="122.87" cy="71.39" r="1.5" fill="#ffb347"/><circle cx="125.37" cy="74.36" r="1.5" fill="#ffb347"/><circle cx="127.66" cy="77.56" r="1.5" fill="#ffb347"/><circle cx="129.73" cy="81.07" r="1.5" fill="#ffb347"/><circle cx="131.47" cy="84.80" r="1.5" fill="#ffb347"/><circle cx="132.87" cy="88.73" r="1.5" fill="#ffb347"/><circle cx="133.88" cy="92.78" r="1.5" fill="#ffb347"/><circle cx="134.50" cy="96.92" r="1.5" fill="#ffb347"/>
<text x="92" y="34" fill="#ddd" font-family="monospace" font-size="9" text-anchor="middle">NEW — 35%</text>
</g></svg>