<svg width="32" height="32" viewBox="0 0 32 32" fill="none" xmlns="http://www.w3.org/2000/svg"><path d="M19.12 29.98H12.81C12.27 29.98 11.87 29.37 11.98 28.73L12.50 25.98H19.43L19.95 28.73C20.05 29.37 19.66 29.98 19.12 29.98Z" fill="#795556"/><path d="M19.12 29.98H12.81C12.27 29.98 11.87 29.37 11.98 28.73L12.50 25.98H19.43L19.95 28.73C20.05 29.37 19.66 29.98 19.12 29.98Z" fill="url(#paint0_radial_18_199)"/><path d="M19.12 29.98H12.81C12.27 29.98 11.87 29.37 11.98 28.73L12.50 25.98H19.43L19.95 28.73C20.05 29.37 19.66 29.98 19.12 29.98Z" fill="url(#paint1_radial_18_199)"/><path d="M19.12 29.98H12.81C12.27 29.98 11.87 29.37 11.98 28.73L12.50 25.98H19.43L19.95 28.73C20.05 29.37 19.66 29.98 19.12 29.98Z" fill="url(#paint2_linear_18_199)"/><path d="M19.12 29.98H12.81C12.27 29.98 11.87 29.37 11.98 28.73L12.50 25.98H19.43L19.95 28.73C20.05 29.37 19.66 29.98 19.12 29.98Z" fill="url(#paint3_linear_18_199)"/><path d="M19.12 29.98H12.81C12.27 29.98 11.87 29.37 11.98 28.73L12.50 25.98H19.43L19.95 28.73C20.05 29.37 19.66 29.98 19.12 29.98Z" fill="url(#paint4_linear_18_199)"/><path d="M19.12 29.98H12.81C12.27 29.98 11.87 29.37 11.98 28.73L12.50 25.98H19.43L19.95 28.73C20.05 29.37 19.66 29.98 19.12 29.98Z" fill="url(#paint5_linear_18_199)"/><g filter="url(#filter0_i_18_199)"><path d="M12.32 19.27H19.61C21.70 19.27 22.54 19.58 23.64 20.74C24.32 21.55 24.99 22.42 24.91 24.02C24.81 25.94 23.71 26.91 21.41 26.91H10.52C8.22 26.91 7.11 25.94 7.02 24.02C6.94 22.42 7.60 21.55 8.28 20.74C9.38 19.58 10.23 19.27 12.32 19.27Z" fill="url(#paint6_radial_18_199)"/><path d="M12.32 19.27H19.61C21.70 19.27 22.54 19.58 23.64 20.74C24.32 21.55 24.99 22.42 24.91 24.02C24.81 25.94 23.71 26.91 21.41 26.91H10.52C8.22 26.91 7.11 25.94 7.02 24.02C6.94 22.42 7.60 21.55 8.28 20.74C9.38 19.58 10.23 19.27 12.32 19.27Z" fill="url(#paint7_radial_18_199)"/><path d="M12.32 19.27H19.61C21.70 19.27 22.54 19.58 23.64 20.74C24.32 21.55 24.99 22.42 24.91 24.02C24.81 25.94 23.71 26.91 21.41 26.91H10.52C8.22 26.91 7.11 25.94 7.02 24.02C6.94 22.42 7.60 21.55 8.28 20.74C9.38 19.58 10.23 19.27 12.32 19.27Z" fill="url(#paint8_radial_18_199)"/><path d="M12.32 19.27H19.61C21.70 19.27 22.54 19.58 23.64 20.74C24.32 21.55 24.99 22.42 24.91 24.02C24.81 25.94 23.71 26.91 21.41 26.91H10.52C8.22 26.91 7.11 25.94 7.02 24.02C6.94 22.42 7.60 21.55 8.28 20.74C9.38 19.58 10.23 19.27 12.32 19.27Z" fill="url(#paint9_linear_18_199)"/></g><path d="M12.32 19.27H19.61C21.70 19.27 22.54 19.58 23.64 20.74C24.32 21.55 24.99 22.42 24.91 24.02C24.81 25.94 23.71 26.91 21.41 26.91H10.52C8.22 26.91 7.11 25.94 7.02 24.02C6.94 22.42 7.60 21.55 8.28 20.74C9.38 19.58 10.23 19.27 12.32 19.27Z" fill="url(#paint10_radial_18_199)"/><path d="M13.59 13.82C12.59 13.82 11.74 14.17 11.03 15.00C11.00 15.04 10.97 15.07 10.94 15.11C10.52 15.65 10.07 16.24 9.90 17.29C9.83 18.62 10.48 19.27 11.59 19.27H20.31C21.41 19.27 22.06 18.62 21.99 17.29C21.83 16.24 21.37 15.65 20.95 15.11C20.93 15.07 20.90 15.04 20.87 15.00C20.15 14.17 19.30 13.82 18.31 13.82H13.59Z" fill="url(#paint11_radial_18_199)"/><path d="M13.59 13.82C12.59 13.82 11.74 14.17 11.03 15.00C11.00 15.04 10.97 15.07 10.94 15.11C10.52 15.65 10.07 16.24 9.90 17.29C9.83 18.62 10.48 19.27 11.59 19.27H20.31C21.41 19.27 22.06 18.62 21.99 17.29C21.83 16.24 21.37 15.65 20.95 15.11C20.93 15.07 20.90 15.04 20.87 15.00C20.15 14.17 19.30 13.82 18.31 13.82H13.59Z" fill="url(#paint12_linear_18_199)"/><path d="M13.59 13.82C12.59 13.82 11.74 14.17 11.03 15.00C11.00 15.04 10.97 15.07 10.94 15.11C10.52 15.65 10.07 16.24 9.90 17.29C9.83 18.62 10.48 19.27 11.59 19.27H20.31C21.41 19.27 22.06 18.62 21.99 17.29C21.83 16.24 21.37 15.65 20.95 15.11C20.93 15.07 20.90 15.04 20.87 15.00C20.15 14.17 19.30 13.82 18.31 13.82H13.59Z" fill="url(#paint13_radial_18_199)"/><path d="M13.59 13.82C12.59 13.82 11.74 14.17 11.03 15.00C11.00 15.04 10.97 15.07 10.94 15.11C10.52 15.65 10.07 16.24 9.90 17.29C9.83 18.62 10.48 19.27 11.59 19.27H20.31C21.41 19.27 22.06 18.62 21.99 17.29C21.83 16.24 21.37 15.65 20.95 15.11C20.93 15.07 20.90 15.04 20.87 15.00C20.15 14.17 19.30 13.82 18.31 13.82H13.59Z" fill="url(#paint14_radial_18_199)"/><path d="M13.59 13.82C12.59 13.82 11.74 14.17 11.03 15.00C11.00 15.04 10.97 15.07 10.94 15.11C10.52 15.65 10.07 16.24 9.90 17.29C9.83 18.62 10.48 19.27 11.59 19.27H20.31C21.41 19.27 22.06 18.62 21.99 17.29C21.83 16.24 21.37 15.65 20.95 15.11C20.93 15.07 20.90 15.04 20.87 15.00C20.15 14.17 19.30 13.82 18.31 13.82H13.59Z" fill="url(#paint15_radial_18_199)"/><path d="M13.59 13.82C12.59 13.82 11.74 14.17 11.03 15.00C11.00 15.04 10.97 15.07 10.94 15.11C10.52 15.65 10.07 16.24 9.90 17.29C9.83 18.62 10.48 19.27 11.59 19.27H20.31C21.41 19.27 22.06 18.62 21.99 17.29C21.83 16.24 21.37 15.65 20.95 15.11C20.93 15.07 20.90 15.04 20.87 15.00C20.15 14.17 19.30 13.82 18.31 13.82H13.59Z" fill="url(#paint16_radial_18_199)"/><path d="M13.59 13.82C12.59 13.82 11.74 14.17 11.03 15.00C11.00 15.04 10.97 15.07 10.94 15.11C10.52 15.65 10.07 16.24 9.90 17.29C9.83 18.62 10.48 19.27 11.59 19.27H20.31C21.41 19.27 22.06 18.62 21.99 17.29C21.83 16.24 21.37 15.65 20.95 15.11C20.93 15.07 20.90 15.04 20.87 15.00C20.15 14.17 19.30 13.82 18.31 13.82H13.59Z" fill="url(#paint17_radial_18_199)"/><path d="M14.65 7.18C15.22 6.15 16.71 6.15 17.28 7.18L19.86 11.89C20.34 12.76 19.71 13.82 18.72 13.82H13.20C12.21 13.82 11.59 12.76 12.06 11.89L14.65 7.18Z" fill="url(#paint18_linear_18_199)"/><path d="M14.65 7.18C15.22 6.15 16.71 6.15 17.28 7.18L19.86 11.89C20.34 12.76 19.71 13.82 18.72 13.82H13.20C12.21 13.82 11.59 12.76 12.06 11.89L14.65 7.18Z" fill="url(#paint19_radial_18_199)"/><path d="M14.65 7.18C15.22 6.15 16.71 6.15 17.28 7.18L19.86 11.89C20.34 12.76 19.71 13.82 18.72 13.82H13.20C12.21 13.82 11.59 12.76 12.06 11.89L14.65 7.18Z" fill="url(#paint20_radial_18_199)"/><path d="M14.65 7.18C15.22 6.15 16.71 6.15 17.28 7.18L19.86 11.89C20.34 12.76 19.71 13.82 18.72 13.82H13.20C12.21 13.82 11.59 12.76 12.06 11.89L14.65 7.18Z" fill="url(#paint21_linear_18_199)"/><path d="M14.65 7.18C15.22 6.15 16.71 6.15 17.28 7.18L19.86 11.89C20.34 12.76 19.71 13.82 18.72 13.82H13.20C12.21 13.82 11.59 12.76 12.06 11.89L14.65 7.18Z" fill="url(#paint22_radial_18_199)"/><path d="M14.65 7.18C15.22 6.15 16.71 6.15 17.28 7.18L19.86 11.89C20.34 12.76 19.71 13.82 18.72 13.82H13.20C12.21 13.82 11.59 12.76 12.06 11.89L14.65 7.18Z" fill="url(#paint23_radial_18_199)"/><path d="M14.65 7.18C15.22 6.15 16.71 6.15 17.28 7.18L19.86 11.89C20.34 12.76 19.71 13.82 18.72 13.82H13.20C12.21 13.82 11.59 12.76 12.06 11.89L14.65 7.18Z" fill="url(#paint24_linear_18_199)"/><g filter="url(#filter1_f_18_199)"><ellipse cx="18.36" cy="23.09" rx="5.59" ry="2.59" fill="url(#paint25_radial_18_199)"/><ellipse cx="18.36" cy="23.09" rx="5.59" ry="2.59" fill="url(#paint26_radial_18_199)"/></g><g filter="url(#filter2_f_18_199)"><ellipse cx="16.71" cy="16.55" rx="4.43" ry="1.58" fill="url(#paint27_radial_18_199)"/><ellipse cx="16.71" cy="16.55" rx="4.43" ry="1.58" fill="url(#paint28_radial_18_199)"/></g><g filter="url(#filter3_f_18_199)"><path d="M15.05 12.30C15.74 11.98 17.56 11.56 19.32 12.38C18.57 12.62 16.65 12.95 15.05 12.30Z" fill="url(#paint29_linear_18_199)"/></g><g filter="url(#filter4_f_18_199)"><path d="M16.54 6.89V12.56H19.69L16.54 6.89Z" fill="url(#paint30_linear_18_199)"/></g><g filter="url(#filter5_f_18_199)"><path d="M18.65 18.37C19.36 18.37 19.94 17.79 19.94 17.08C19.94 16.36 19.36 15.79 18.65 15.79C17.93 15.79 17.36 16.36 17.36 17.08C17.36 17.79 17.93 18.37 18.65 18.37Z" fill="#539835"/></g><g filter="url(#filter6_f_18_199)"><path d="M15.90 23.36C16.61 23.36 17.19 22.79 17.19 22.07C17.19 21.36 16.61 20.78 15.90 20.78C15.18 20.78 14.61 21.36 14.61 22.07C14.61 22.79 15.18 23.36 15.90 23.36Z" fill="#539835"/></g><g filter="url(#filter7_f_18_199)"><path d="M21.84 25.27C22.55 25.27 23.13 24.70 23.13 23.98C23.13 23.27 22.55 22.69 21.84 22.69C21.12 22.69 20.55 23.27 20.55 23.98C20.55 24.70 21.12 25.27 21.84 25.27Z" fill="#72AC3A"/></g><g filter="url(#filter8_f_18_199)"><path d="M13.59 17.38C14.30 17.38 14.88 16.80 14.88 16.09C14.88 15.38 14.30 14.80 13.59 14.80C12.87 14.80 12.30 15.38 12.30 16.09C12.30 16.80 12.87 17.38 13.59 17.38Z" fill="#539835"/></g><g filter="url(#filter9_f_18_199)"><path d="M11.01 25.53C11.72 25.53 12.30 24.96 12.30 24.24C12.30 23.53 11.72 22.95 11.01 22.95C10.29 22.95 9.72 23.53 9.72 24.24C9.72 24.96 10.29 25.53 11.01 25.53Z" fill="#4F7068"/></g><path d="M13.76 17.38C14.47 17.38 15.05 16.80 15.05 16.09C15.05 15.38 14.47 14.80 13.76 14.80C13.04 14.80 12.47 15.38 12.47 16.09C12.47 16.80 13.04 17.38 13.76 17.38Z" fill="url(#paint31_radial_18_199)"/><path d="M18.75 18.24C19.46 18.24 20.04 17.66 20.04 16.95C20.04 16.24 19.46 15.66 18.75 15.66C18.03 15.66 17.46 16.24 17.46 16.95C17.46 17.66 18.03 18.24 18.75 18.24Z" fill="url(#paint32_radial_18_199)"/><path d="M11.19 25.40C11.90 25.40 12.48 24.82 12.48 24.11C12.48 23.40 11.90 22.82 11.19 22.82C10.47 22.82 9.90 23.40 9.90 24.11C9.90 24.82 10.47 25.40 11.19 25.40Z" fill="url(#paint33_radial_18_199)"/><path d="M22.00 25.19C22.71 25.19 23.29 24.61 23.29 23.90C23.29 23.19 22.71 22.61 22.00 22.61C21.28 22.61 20.71 23.19 20.71 23.90C20.71 24.61 21.28 25.19 22.00 25.19Z" fill="url(#paint34_radial_18_199)"/><path d="M16.17 23.18C16.88 23.18 17.46 22.60 17.46 21.89C17.46 21.18 16.88 20.60 16.17 20.60C15.45 20.60 14.88 21.18 14.88 21.89C14.88 22.60 15.45 23.18 16.17 23.18Z" fill="url(#paint35_radial_18_199)"/><g filter="url(#filter10_f_18_199)"><path d="M16.54 12.68C17.25 12.68 17.83 12.10 17.83 11.39C17.83 10.68 17.25 10.10 16.54 10.10C15.83 10.10 15.25 10.68 15.25 11.39C15.25 12.10 15.83 12.68 16.54 12.68Z" fill="#539835"/></g><path d="M16.79 12.50C17.50 12.50 18.08 11.92 18.08 11.21C18.08 10.50 17.50 9.92 16.79 9.92C16.07 9.92 15.50 10.50 15.50 11.21C15.50 11.92 16.07 12.50 16.79 12.50Z" fill="url(#paint36_radial_18_199)"/><g filter="url(#filter11_i_18_199)"><path d="M16.98 3.14L17.70 3.25C18.07 3.30 18.21 3.75 17.95 4.01L17.43 4.52C17.32 4.62 17.28 4.77 17.30 4.91L17.42 5.63C17.48 5.99 17.10 6.27 16.77 6.10L16.13 5.76C16.00 5.69 15.84 5.69 15.71 5.76L15.07 6.10C14.74 6.27 14.36 5.99 14.42 5.63L14.54 4.91C14.56 4.77 14.52 4.62 14.41 4.52L13.89 4.01C13.63 3.75 13.77 3.30 14.14 3.25L14.86 3.15C15.01 3.13 15.13 3.04 15.20 2.91L15.52 2.26C15.68 1.93 16.16 1.93 16.32 2.26L16.64 2.91C16.71 3.02 16.83 3.12 16.98 3.14Z" fill="url(#paint37_radial_18_199)"/><path d="M16.98 3.14L17.70 3.25C18.07 3.30 18.21 3.75 17.95 4.01L17.43 4.52C17.32 4.62 17.28 4.77 17.30 4.91L17.42 5.63C17.48 5.99 17.10 6.27 16.77 6.10L16.13 5.76C16.00 5.69 15.84 5.69 15.71 5.76L15.07 6.10C14.74 6.27 14.36 5.99 14.42 5.63L14.54 4.91C14.56 4.77 14.52 4.62 14.41 4.52L13.89 4.01C13.63 3.75 13.77 3.30 14.14 3.25L14.86 3.15C15.01 3.13 15.13 3.04 15.20 2.91L15.52 2.26C15.68 1.93 16.16 1.93 16.32 2.26L16.64 2.91C16.71 3.02 16.83 3.12 16.98 3.14Z" fill="url(#paint38_radial_18_199)"/><path d="M16.98 3.14L17.70 3.25C18.07 3.30 18.21 3.75 17.95 4.01L17.43 4.52C17.32 4.62 17.28 4.77 17.30 4.91L17.42 5.63C17.48 5.99 17.10 6.27 16.77 6.10L16.13 5.76C16.00 5.69 15.84 5.69 15.71 5.76L15.07 6.10C14.74 6.27 14.36 5.99 14.42 5.63L14.54 4.91C14.56 4.77 14.52 4.62 14.41 4.52L13.89 4.01C13.63 3.75 13.77 3.30 14.14 3.25L14.86 3.15C15.01 3.13 15.13 3.04 15.20 2.91L15.52 2.26C15.68 1.93 16.16 1.93 16.32 2.26L16.64 2.91C16.71 3.02 16.83 3.12 16.98 3.14Z" fill="url(#paint39_radial_18_199)"/><path d="M16.98 3.14L17.70 3.25C18.07 3.30 18.21 3.75 17.95 4.01L17.43 4.52C17.32 4.62 17.28 4.77 17.30 4.91L17.42 5.63C17.48 5.99 17.10 6.27 16.77 6.10L16.13 5.76C16.00 5.69 15.84 5.69 15.71 5.76L15.07 6.10C14.74 6.27 14.36 5.99 14.42 5.63L14.54 4.91C14.56 4.77 14.52 4.62 14.41 4.52L13.89 4.01C13.63 3.75 13.77 3.30 14.14 3.25L14.86 3.15C15.01 3.13 15.13 3.04 15.20 2.91L15.52 2.26C15.68 1.93 16.16 1.93 16.32 2.26L16.64 2.91C16.71 3.02 16.83 3.12 16.98 3.14Z" fill="url(#paint40_radial_18_199)"/></g><defs><filter id="filter0_i_18_199" x="7.01" y="19.27" width="18.15" height="7.64" filterUnits="userSpaceOnUse" color-interpolation-filters="sRGB"><feFlood flood-opacity="0" result="BackgroundImageFix"/><feBlend mode="normal" in="SourceGraphic" in2="BackgroundImageFix" result="shape"/><feColorMatrix in="SourceAlpha" type="matrix" values="0 0 0 0 0 0 0 0 0 0 0 0 0 0 0 0 0 0 127 0" result="hardAlpha"/><feOffset dx="0.25"/><feGaussianBlur stdDeviation="0.37"/><feComposite in2="hardAlpha" operator="arithmetic" k2="-1" k3="1"/><feColorMatrix type="matrix" values="0 0 0 0 0.48 0 0 0 0 0.6 0 0 0 0 0.51 0 0 0 1 0"/><feBlend mode="normal" in2="shape" result="effect1_innerShadow_18_199"/></filter><filter id="filter1_f_18_199" x="10.77" y="18.50" width="15.19" height="9.18" filterUnits="userSpaceOnUse" color-interpolation-filters="sRGB"><feFlood flood-opacity="0" result="BackgroundImageFix"/><feBlend mode="normal" in="SourceGraphic" in2="BackgroundImageFix" result="shape"/><feGaussianBlur stdDeviation="1" result="effect1_foregroundBlur_18_199"/></filter><filter id="filter2_f_18_199" x="10.28" y="12.96" width="12.87" height="7.17" filterUnits="userSpaceOnUse" color-interpolation-filters="sRGB"><feFlood flood-opacity="0" result="BackgroundImageFix"/><feBlend mode="normal" in="SourceGraphic" in2="BackgroundImageFix" result="shape"/><feGaussianBlur stdDeviation="1" result="effect1_foregroundBlur_18_199"/></filter><filter id="filter3_f_18_199" x="14.05" y="10.91" width="6.27" height="2.77" filterUnits="userSpaceOnUse" color-interpolation-filters="sRGB"><feFlood flood-opacity="0" result="BackgroundImageFix"/><feBlend mode="normal" in="SourceGraphic" in2="BackgroundImageFix" result="shape"/><feGaussianBlur stdDeviation="0.5" result="effect1_foregroundBlur_18_199"/></filter><filter id="filter4_f_18_199" x="15.54" y="5.89" width="5.15" height="7.67" filterUnits="userSpaceOnUse" color-interpolation-filters="sRGB"><feFlood flood-opacity="0" result="BackgroundImageFix"/><feBlend mode="normal" in="SourceGraphic" in2="BackgroundImageFix" result="shape"/><feGaussianBlur stdDeviation="0.5" result="effect1_foregroundBlur_18_199"/></filter><filter id="filter5_f_18_199" x="16.86" y="15.29" width="3.57" height="3.57" filterUnits="userSpaceOnUse" color-interpolation-filters="sRGB"><feFlood flood-opacity="0" result="BackgroundImageFix"/><feBlend mode="normal" in="SourceGraphic" in2="BackgroundImageFix" result="shape"/><feGaussianBlur stdDeviation="0.25" result="effect1_foregroundBlur_18_199"/></filter><filter id="filter6_f_18_199" x="14.11" y="20.28" width="3.57" height="3.57" filterUnits="userSpaceOnUse" color-interpolation-filters="sRGB"><feFlood flood-opacity="0" result="BackgroundImageFix"/><feBlend mode="normal" in="SourceGraphic" in2="BackgroundImageFix" result="shape"/><feGaussianBlur stdDeviation="0.25" result="effect1_foregroundBlur_18_199"/></filter><filter id="filter7_f_18_199" x="20.05" y="22.19" width="3.58" height="3.57" filterUnits="userSpaceOnUse" color-interpolation-filters="sRGB"><feFlood flood-opacity="0" result="BackgroundImageFix"/><feBlend mode="normal" in="SourceGraphic" in2="BackgroundImageFix" result="shape"/><feGaussianBlur stdDeviation="0.25" result="effect1_foregroundBlur_18_199"/></filter><filter id="filter8_f_18_199" x="11.80" y="14.30" width="3.57" height="3.57" filterUnits="userSpaceOnUse" color-interpolation-filters="sRGB"><feFlood flood-opacity="0" result="BackgroundImageFix"/><feBlend mode="normal" in="SourceGraphic" in2="BackgroundImageFix" result="shape"/><feGaussianBlur stdDeviation="0.25" result="effect1_foregroundBlur_18_199"/></filter><filter id="filter9_f_18_199" x="9.22" y="22.45" width="3.57" height="3.57" filterUnits="userSpaceOnUse" color-interpolation-filters="sRGB"><feFlood flood-opacity="0" result="BackgroundImageFix"/><feBlend mode="normal" in="SourceGraphic" in2="BackgroundImageFix" result="shape"/><feGaussianBlur stdDeviation="0.25" result="effect1_foregroundBlur_18_199"/></filter><filter id="filter10_f_18_199" x="14.75" y="9.60" width="3.57" height="3.57" filterUnits="userSpaceOnUse" color-interpolation-filters="sRGB"><feFlood flood-opacity="0" result="BackgroundImageFix"/><feBlend mode="normal" in="SourceGraphic" in2="BackgroundImageFix" result="shape"/><feGaussianBlur stdDeviation="0.25" result="effect1_foregroundBlur_18_199"/></filter><filter id="filter11_i_18_199" x="13.75" y="2.01" width="4.32" height="4.13" filterUnits="userSpaceOnUse" color-interpolation-filters="sRGB"><feFlood flood-opacity="0" result="BackgroundImageFix"/><feBlend mode="normal" in="SourceGraphic" in2="BackgroundImageFix" result="shape"/><feColorMatrix in="SourceAlpha" type="matrix" values="0 0 0 0 0 0 0 0 0 0 0 0 0 0 0 0 0 0 127 0" result="hardAlpha"/><feOffset/><feGaussianBlur stdDeviation="0.2"/><feComposite in2="hardAlpha" operator="arithmetic" k2="-1" k3="1"/><feColorMatrix type="matrix" values="0 0 0 0 0.93 0 0 0 0 0.74 0 0 0 0 0.33 0 0 0 1 0"/><feBlend mode="normal" in2="shape" result="effect1_innerShadow_18_199"/></filter><radialGradient id="paint0_radial_18_199" cx="0" cy="0" r="1" gradientUnits="userSpaceOnUse" gradientTransform="translate(17.19 25.98) rotate(70.32) scale(3.03 1.95)"><stop offset="0.34" stop-color="#5F2F2E"/><stop offset="1" stop-color="#5F2F2E" stop-opacity="0"/></radialGradient><radialGradient id="paint1_radial_18_199" cx="0" cy="0" r="1" gradientUnits="userSpaceOnUse" gradientTransform="translate(15.19 25.53) rotate(102.41) scale(5.35 2.99)"><stop offset="0.48" stop-color="#5F2F2E"/><stop offset="0.96" stop-color="#5F2F2E" stop-opacity="0"/></radialGradient><linearGradient id="paint2_linear_18_199" x1="15.96" y1="30.09" x2="15.81" y2="28.87" gradientUnits="userSpaceOnUse"><stop stop-color="#7B4064"/><stop offset="1" stop-color="#7B4064" stop-opacity="0"/></linearGradient><linearGradient id="paint3_linear_18_199" x1="11.50" y1="27.81" x2="12.92" y2="27.98" gradientUnits="userSpaceOnUse"><stop stop-color="#826C6A"/><stop offset="1" stop-color="#826C6A" stop-opacity="0"/></linearGradient><linearGradient id="paint4_linear_18_199" x1="20.12" y1="27.62" x2="19.22" y2="27.98" gradientUnits="userSpaceOnUse"><stop stop-color="#826C6A"/><stop offset="1" stop-color="#826C6A" stop-opacity="0"/></linearGradient><linearGradient id="paint5_linear_18_199" x1="15.96" y1="29.74" x2="15.96" y2="30.04" gradientUnits="userSpaceOnUse"><stop stop-color="#8F5790" stop-opacity="0"/><stop offset="1" stop-color="#8F5790"/></linearGradient><radialGradient id="paint6_radial_18_199" cx="0" cy="0" r="1" gradientUnits="userSpaceOnUse" gradientTransform="translate(24.23 23.09) rotate(180) scale(16.45 9.17)"><stop stop-color="#80C156"/><stop offset="1" stop-color="#52915C"/></radialGradient><radialGradient id="paint7_radial_18_199" cx="0" cy="0" r="1" gradientUnits="userSpaceOnUse" gradientTransform="translate(15.96 18.08) rotate(90) scale(5.01 22.69)"><stop stop-color="#57A22C"/><stop offset="1" stop-color="#57A22C" stop-opacity="0"/></radialGradient><radialGradient id="paint8_radial_18_199" cx="0" cy="0" r="1" gradientUnits="userSpaceOnUse" gradientTransform="translate(10.26 26.91) scale(10.04 1.58)"><stop stop-color="#7F779B"/><stop offset="0.00" stop-color="#6F708D"/><stop offset="1" stop-color="#7F779B" stop-opacity="0"/></radialGradient><linearGradient id="paint9_linear_18_199" x1="17.05" y1="27.19" x2="17.05" y2="26.45" gradientUnits="userSpaceOnUse"><stop stop-color="#7F779B"/><stop offset="1" stop-color="#7F779B" stop-opacity="0"/></linearGradient><radialGradient id="paint10_radial_18_199" cx="0" cy="0" r="1" gradientUnits="userSpaceOnUse" gradientTransform="translate(16.49 18.91) rotate(173.69) scale(9.53 2.17)"><stop stop-color="#105B0D"/><stop offset="1" stop-color="#105B0D" stop-opacity="0"/></radialGradient><radialGradient id="paint11_radial_18_199" cx="0" cy="0" r="1" gradientUnits="userSpaceOnUse" gradientTransform="translate(21.54 16.55) rotate(180) scale(11.12 6.54)"><stop stop-color="#80C156"/><stop offset="1" stop-color="#52915C"/></radialGradient><linearGradient id="paint12_linear_18_199" x1="11.03" y1="16.55" x2="16.96" y2="16.55" gradientUnits="userSpaceOnUse"><stop stop-color="#529257"/><stop offset="1" stop-color="#529257" stop-opacity="0"/></linearGradient><radialGradient id="paint13_radial_18_199" cx="0" cy="0" r="1" gradientUnits="userSpaceOnUse" gradientTransform="translate(15.95 12.97) rotate(90) scale(3.57 15.34)"><stop stop-color="#57A22C"/><stop offset="1" stop-color="#57A22C" stop-opacity="0"/></radialGradient><radialGradient id="paint14_radial_18_199" cx="0" cy="0" r="1" gradientUnits="userSpaceOnUse" gradientTransform="translate(15.95 19.66) rotate(-90) scale(1.80 9.00)"><stop stop-color="#479820"/><stop offset="1" stop-color="#479820" stop-opacity="0"/></radialGradient><radialGradient id="paint15_radial_18_199" cx="0" cy="0" r="1" gradientUnits="userSpaceOnUse" gradientTransform="translate(15.95 19.41) rotate(-90) scale(0.84 7.43)"><stop stop-color="#15600B"/><stop offset="1" stop-color="#15600B" stop-opacity="0"/></radialGradient><radialGradient id="paint16_radial_18_199" cx="0" cy="0" r="1" gradientUnits="userSpaceOnUse" gradientTransform="translate(22.00 19.51) rotate(-164.81) scale(12.54 6.64)"><stop offset="0.87" stop-color="#75947D" stop-opacity="0"/><stop offset="1" stop-color="#75947D"/></radialGradient><radialGradient id="paint17_radial_18_199" cx="0" cy="0" r="1" gradientUnits="userSpaceOnUse" gradientTransform="translate(15.01 13.29) rotate(90) scale(1.07 7.39)"><stop stop-color="#15600B"/><stop offset="1" stop-color="#15600B" stop-opacity="0"/></radialGradient><linearGradient id="paint18_linear_18_199" x1="14.59" y1="11.06" x2="19.34" y2="11.06" gradientUnits="userSpaceOnUse"><stop stop-color="#5A9D57"/><stop offset="1" stop-color="#7FC43A"/></linearGradient><radialGradient id="paint19_radial_18_199" cx="0" cy="0" r="1" gradientUnits="userSpaceOnUse" gradientTransform="translate(15.96 14.13) rotate(-90) scale(1.81 8.06)"><stop stop-color="#3B9017"/><stop offset="1" stop-color="#3B9017" stop-opacity="0"/></radialGradient><radialGradient id="paint20_radial_18_199" cx="0" cy="0" r="1" gradientUnits="userSpaceOnUse" gradientTransform="translate(11.46 13.44) rotate(-11.41) scale(3.97 4.72)"><stop stop-color="#608371"/><stop offset="1" stop-color="#608371" stop-opacity="0"/></radialGradient><linearGradient id="paint21_linear_18_199" x1="11.90" y1="10.11" x2="13.55" y2="10.73" gradientUnits="userSpaceOnUse"><stop stop-color="#608371"/><stop offset="1" stop-color="#608371" stop-opacity="0"/></linearGradient><radialGradient id="paint22_radial_18_199" cx="0" cy="0" r="1" gradientUnits="userSpaceOnUse" gradientTransform="translate(12.34 14.27) rotate(-47.77) scale(1.29 2.51)"><stop stop-color="#637374"/><stop offset="1" stop-color="#637374" stop-opacity="0"/></radialGradient><radialGradient id="paint23_radial_18_199" cx="0" cy="0" r="1" gradientUnits="userSpaceOnUse" gradientTransform="translate(11.59 14.33) rotate(-4.99) scale(4.38 0.99)"><stop stop-color="#15600B"/><stop offset="1" stop-color="#15600B" stop-opacity="0"/></radialGradient><linearGradient id="paint24_linear_18_199" x1="15.96" y1="6.41" x2="15.96" y2="7.59" gradientUnits="userSpaceOnUse"><stop stop-color="#639E52"/><stop offset="1" stop-color="#70A960" stop-opacity="0"/></linearGradient><radialGradient id="paint25_radial_18_199" cx="0" cy="0" r="1" gradientUnits="userSpaceOnUse" gradientTransform="translate(24.43 23.09) rotate(-180) scale(9.74 1.76)"><stop stop-color="#A2E070"/><stop offset="1" stop-color="#A2E070" stop-opacity="0"/></radialGradient><radialGradient id="paint26_radial_18_199" cx="0" cy="0" r="1" gradientUnits="userSpaceOnUse" gradientTransform="translate(10.65 23.09) scale(13.14 4.03)"><stop offset="0.88" stop-color="#9FDF6B" stop-opacity="0"/><stop offset="1" stop-color="#9FDF6B"/></radialGradient><radialGradient id="paint27_radial_18_199" cx="0" cy="0" r="1" gradientUnits="userSpaceOnUse" gradientTransform="translate(21.52 16.55) rotate(-180) scale(7.72 1.08)"><stop stop-color="#A2E070"/><stop offset="1" stop-color="#A2E070" stop-opacity="0"/></radialGradient><radialGradient id="paint28_radial_18_199" cx="0" cy="0" r="1" gradientUnits="userSpaceOnUse" gradientTransform="translate(10.60 16.55) scale(10.42 2.46)"><stop offset="0.88" stop-color="#9FDF6B" stop-opacity="0"/><stop offset="1" stop-color="#9FDF6B"/></radialGradient><linearGradient id="paint29_linear_18_199" x1="18.60" y1="12.29" x2="15.27" y2="12.29" gradientUnits="userSpaceOnUse"><stop stop-color="#9DD573"/><stop offset="1" stop-color="#9DD573" stop-opacity="0"/></linearGradient><linearGradient id="paint30_linear_18_199" x1="18.49" y1="9.86" x2="16.55" y2="10.38" gradientUnits="userSpaceOnUse"><stop stop-color="#9AD869"/><stop offset="1" stop-color="#9AD869" stop-opacity="0"/></linearGradient><radialGradient id="paint31_radial_18_199" cx="0" cy="0" r="1" gradientUnits="userSpaceOnUse" gradientTransform="translate(14.42 15.61) rotate(135) scale(2.00 2.41)"><stop stop-color="#FFF863"/><stop offset="1" stop-color="#E19E4A"/></radialGradient><radialGradient id="paint32_radial_18_199" cx="0" cy="0" r="1" gradientUnits="userSpaceOnUse" gradientTransform="translate(19.46 16.45) rotate(147.92) scale(2.36)"><stop stop-color="#FF62A7"/><stop offset="1" stop-color="#C23436"/></radialGradient><radialGradient id="paint33_radial_18_199" cx="0" cy="0" r="1" gradientUnits="userSpaceOnUse" gradientTransform="translate(11.90 23.61) rotate(147.92) scale(2.36 2.36)"><stop stop-color="#FF62A7"/><stop offset="1" stop-color="#C23436"/></radialGradient><radialGradient id="paint34_radial_18_199" cx="0" cy="0" r="1" gradientUnits="userSpaceOnUse" gradientTransform="translate(22.71 23.40) rotate(147.92) scale(2.36)"><stop stop-color="#FF62A7"/><stop offset="1" stop-color="#C23436"/></radialGradient><radialGradient id="paint35_radial_18_199" cx="0" cy="0" r="1" gradientUnits="userSpaceOnUse" gradientTransform="translate(16.83 21.41) rotate(135) scale(2.00 2.41)"><stop stop-color="#FFF863"/><stop offset="1" stop-color="#E19E4A"/></radialGradient><radialGradient id="paint36_radial_18_199" cx="0" cy="0" r="1" gradientUnits="userSpaceOnUse" gradientTransform="translate(17.45 10.73) rotate(135) scale(2.00 2.41)"><stop stop-color="#FFF863"/><stop offset="1" stop-color="#E19E4A"/></radialGradient><radialGradient id="paint37_radial_18_199" cx="0" cy="0" r="1" gradientUnits="userSpaceOnUse" gradientTransform="translate(18.08 3.72) rotate(153.49) scale(4.27 6.22)"><stop offset="0.05" stop-color="#FFF754"/><stop offset="0.61" stop-color="#F8CD3D"/></radialGradient><radialGradient id="paint38_radial_18_199" cx="0" cy="0" r="1" gradientUnits="userSpaceOnUse" gradientTransform="translate(15.92 6.70) rotate(90) scale(1.40 1.47)"><stop offset="0.42" stop-color="#D2AE38"/><stop offset="1" stop-color="#D2AE38" stop-opacity="0"/></radialGradient><radialGradient id="paint39_radial_18_199" cx="0" cy="0" r="1" gradientUnits="userSpaceOnUse" gradientTransform="translate(16.46 2.34) rotate(74.48) scale(1.81 0.87)"><stop offset="0.15" stop-color="#FFF15D"/><stop offset="1" stop-color="#FFF15D" stop-opacity="0"/></radialGradient><radialGradient id="paint40_radial_18_199" cx="0" cy="0" r="1" gradientUnits="userSpaceOnUse" gradientTransform="translate(18.25 3.53) rotate(156.98) scale(1.42 0.44)"><stop stop-color="#FFF15D"/><stop offset="1" stop-color="#FFF15D" stop-opacity="0"/></radialGradient></defs></svg>