<svg width="32" height="32" viewBox="0 0 32 32" fill="none" xmlns="http://www.w3.org/2000/svg"><g filter="url(#filter0_ii_18_17508)"><path d="M2.21 23.03C2.21 19.71 5.18 17.03 8.5 17.03H23.48C26.79 17.03 29.78 19.71 29.78 23.03V23.96C29.78 27.28 27.10 29.96 23.34 29.96H8.79C4.98 29.96 2.21 27.28 2.21 23.96V23.03Z" fill="url(#paint0_linear_18_17508)"/></g><g filter="url(#filter1_f_18_17508)"><path d="M7.24 17.46L7.56 23.02C7.66 24.60 8.85 25.84 11.04 25.84H21.07C23.15 25.84 24.30 24.60 24.40 23.02L24.72 17.46H7.24Z" fill="#3A1333"/></g><g filter="url(#filter2_i_18_17508)"><path d="M11.04 25.59C8.85 25.59 7.66 24.35 7.56 22.77L6.78 9.43C6.72 8.33 6.77 6.15 7.85 5.04C8.94 3.93 9.89 3.93 10.68 3.93H21.28C22.07 3.93 23.02 3.93 24.10 5.04C25.19 6.15 25.24 8.33 25.18 9.43L24.40 22.77C24.30 24.35 23.15 25.59 21.07 25.59H11.04Z" fill="url(#paint1_linear_18_17508)"/><path d="M11.04 25.59C8.85 25.59 7.66 24.35 7.56 22.77L6.78 9.43C6.72 8.33 6.77 6.15 7.85 5.04C8.94 3.93 9.89 3.93 10.68 3.93H21.28C22.07 3.93 23.02 3.93 24.10 5.04C25.19 6.15 25.24 8.33 25.18 9.43L24.40 22.77C24.30 24.35 23.15 25.59 21.07 25.59H11.04Z" fill="url(#paint2_radial_18_17508)"/></g><g filter="url(#filter3_i_18_17508)"><path d="M7.36 19.32C7.87 20.57 9.20 21.71 11.04 21.71H21.07C22.87 21.71 24.13 20.61 24.60 19.35L24.40 22.77C24.30 24.35 23.15 25.59 21.07 25.59H11.04C8.85 25.59 7.66 24.35 7.56 22.77L7.36 19.32Z" fill="url(#paint3_linear_18_17508)"/><path d="M7.36 19.32C7.87 20.57 9.20 21.71 11.04 21.71H21.07C22.87 21.71 24.13 20.61 24.60 19.35L24.40 22.77C24.30 24.35 23.15 25.59 21.07 25.59H11.04C8.85 25.59 7.66 24.35 7.56 22.77L7.36 19.32Z" fill="url(#paint4_radial_18_17508)"/><path d="M7.36 19.32C7.87 20.57 9.20 21.71 11.04 21.71H21.07C22.87 21.71 24.13 20.61 24.60 19.35L24.40 22.77C24.30 24.35 23.15 25.59 21.07 25.59H11.04C8.85 25.59 7.66 24.35 7.56 22.77L7.36 19.32Z" fill="url(#paint5_radial_18_17508)"/><path d="M7.36 19.32C7.87 20.57 9.20 21.71 11.04 21.71H21.07C22.87 21.71 24.13 20.61 24.60 19.35L24.40 22.77C24.30 24.35 23.15 25.59 21.07 25.59H11.04C8.85 25.59 7.66 24.35 7.56 22.77L7.36 19.32Z" fill="url(#paint6_linear_18_17508)"/></g><g filter="url(#filter4_f_18_17508)"><rect x="8.71" y="7.87" width="14.57" height="1.81" fill="#574965"/></g><g filter="url(#filter5_f_18_17508)"><path d="M21.43 20.75L22 5.15C24.05 5.15 24.35 7.19 24.25 8.21L23.81 19.06C23.36 20.16 22.04 20.64 21.43 20.75Z" fill="url(#paint7_linear_18_17508)"/></g><defs><filter id="filter0_ii_18_17508" x="1.71" y="16.53" width="28.06" height="13.43" filterUnits="userSpaceOnUse" color-interpolation-filters="sRGB"><feFlood flood-opacity="0" result="BackgroundImageFix"/><feBlend mode="normal" in="SourceGraphic" in2="BackgroundImageFix" result="shape"/><feColorMatrix in="SourceAlpha" type="matrix" values="0 0 0 0 0 0 0 0 0 0 0 0 0 0 0 0 0 0 127 0" result="hardAlpha"/><feOffset dx="-0.5" dy="-0.5"/><feGaussianBlur stdDeviation="0.25"/><feComposite in2="hardAlpha" operator="arithmetic" k2="-1" k3="1"/><feColorMatrix type="matrix" values="0 0 0 0 0.44 0 0 0 0 0.39 0 0 0 0 0.49 0 0 0 1 0"/><feBlend mode="normal" in2="shape" result="effect1_innerShadow_18_17508"/><feColorMatrix in="SourceAlpha" type="matrix" values="0 0 0 0 0 0 0 0 0 0 0 0 0 0 0 0 0 0 127 0" result="hardAlpha"/><feOffset dx="-0.25" dy="-0.25"/><feGaussianBlur stdDeviation="0.25"/><feComposite in2="hardAlpha" operator="arithmetic" k2="-1" k3="1"/><feColorMatrix type="matrix" values="0 0 0 0 0.27 0 0 0 0 0.16 0 0 0 0 0.38 0 0 0 1 0"/><feBlend mode="normal" in2="effect1_innerShadow_18_17508" result="effect2_innerShadow_18_17508"/></filter><filter id="filter1_f_18_17508" x="6.24" y="16.46" width="19.48" height="10.37" filterUnits="userSpaceOnUse" color-interpolation-filters="sRGB"><feFlood flood-opacity="0" result="BackgroundImageFix"/><feBlend mode="normal" in="SourceGraphic" in2="BackgroundImageFix" result="shape"/><feGaussianBlur stdDeviation="0.5" result="effect1_foregroundBlur_18_17508"/></filter><filter id="filter2_i_18_17508" x="6.76" y="3.93" width="20.43" height="21.65" filterUnits="userSpaceOnUse" color-interpolation-filters="sRGB"><feFlood flood-opacity="0" result="BackgroundImageFix"/><feBlend mode="normal" in="SourceGraphic" in2="BackgroundImageFix" result="shape"/><feColorMatrix in="SourceAlpha" type="matrix" values="0 0 0 0 0 0 0 0 0 0 0 0 0 0 0 0 0 0 127 0" result="hardAlpha"/><feOffset dx="2"/><feGaussianBlur stdDeviation="1.5"/><feComposite in2="hardAlpha" operator="arithmetic" k2="-1" k3="1"/><feColorMatrix type="matrix" values="0 0 0 0 0.27 0 0 0 0 0.24 0 0 0 0 0.30 0 0 0 1 0"/><feBlend mode="normal" in2="shape" result="effect1_innerShadow_18_17508"/></filter><filter id="filter3_i_18_17508" x="7.36" y="19.32" width="17.23" height="6.47" filterUnits="userSpaceOnUse" color-interpolation-filters="sRGB"><feFlood flood-opacity="0" result="BackgroundImageFix"/><feBlend mode="normal" in="SourceGraphic" in2="BackgroundImageFix" result="shape"/><feColorMatrix in="SourceAlpha" type="matrix" values="0 0 0 0 0 0 0 0 0 0 0 0 0 0 0 0 0 0 127 0" result="hardAlpha"/><feOffset dy="0.2"/><feGaussianBlur stdDeviation="0.1"/><feComposite in2="hardAlpha" operator="arithmetic" k2="-1" k3="1"/><feColorMatrix type="matrix" values="0 0 0 0 0.85 0 0 0 0 0.12 0 0 0 0 0.31 0 0 0 1 0"/><feBlend mode="normal" in2="shape" result="effect1_innerShadow_18_17508"/></filter><filter id="filter4_f_18_17508" x="7.21" y="6.37" width="17.57" height="4.81" filterUnits="userSpaceOnUse" color-interpolation-filters="sRGB"><feFlood flood-opacity="0" result="BackgroundImageFix"/><feBlend mode="normal" in="SourceGraphic" in2="BackgroundImageFix" result="shape"/><feGaussianBlur stdDeviation="0.75" result="effect1_foregroundBlur_18_17508"/></filter><filter id="filter5_f_18_17508" x="19.93" y="3.65" width="5.83" height="18.59" filterUnits="userSpaceOnUse" color-interpolation-filters="sRGB"><feFlood flood-opacity="0" result="BackgroundImageFix"/><feBlend mode="normal" in="SourceGraphic" in2="BackgroundImageFix" result="shape"/><feGaussianBlur stdDeviation="0.75" result="effect1_foregroundBlur_18_17508"/></filter><linearGradient id="paint0_linear_18_17508" x1="16" y1="17.03" x2="16" y2="27.56" gradientUnits="userSpaceOnUse"><stop offset="0.21" stop-color="#333135"/><stop offset="1" stop-color="#523B5E"/></linearGradient><linearGradient id="paint1_linear_18_17508" x1="15.98" y1="3.93" x2="15.98" y2="25.59" gradientUnits="userSpaceOnUse"><stop offset="0.42" stop-color="#534262"/><stop offset="1" stop-color="#43354B"/></linearGradient><radialGradient id="paint2_radial_18_17508" cx="0" cy="0" r="1" gradientUnits="userSpaceOnUse" gradientTransform="translate(24.87 20.93) rotate(-86.03) scale(10.83 4.69)"><stop stop-color="#4C4653"/><stop offset="1" stop-color="#4C4653" stop-opacity="0"/></radialGradient><linearGradient id="paint3_linear_18_17508" x1="10.37" y1="21.18" x2="22.74" y2="24.99" gradientUnits="userSpaceOnUse"><stop stop-color="#EB3469"/><stop offset="1" stop-color="#E12E84"/></linearGradient><radialGradient id="paint4_radial_18_17508" cx="0" cy="0" r="1" gradientUnits="userSpaceOnUse" gradientTransform="translate(20.46 21.09) rotate(90) scale(2.75 11.40)"><stop stop-color="#FE4F93"/><stop offset="1" stop-color="#FE4F93" stop-opacity="0"/></radialGradient><radialGradient id="paint5_radial_18_17508" cx="0" cy="0" r="1" gradientUnits="userSpaceOnUse" gradientTransform="translate(22.43 20.31) rotate(90) scale(4.71 7.16)"><stop stop-color="#FF4C99"/><stop offset="1" stop-color="#FF4C99" stop-opacity="0"/></radialGradient><linearGradient id="paint6_linear_18_17508" x1="7.36" y1="23.40" x2="11.37" y2="23.40" gradientUnits="userSpaceOnUse"><stop stop-color="#BA2D43"/><stop offset="1" stop-color="#BA2D43" stop-opacity="0"/></linearGradient><linearGradient id="paint7_linear_18_17508" x1="23.59" y1="5.15" x2="22.85" y2="20.75" gradientUnits="userSpaceOnUse"><stop stop-color="#70657C"/><stop offset="1" stop-color="#4D4455"/></linearGradient></defs></svg>