<svg width="32" height="32" viewBox="0 0 32 32" fill="none" xmlns="http://www.w3.org/2000/svg"><g filter="url(#filter0_i_18_23511)"><path d="M10.95 14.14V8.57C10.95 5.80 13.19 3.56 15.96 3.56C18.73 3.56 20.98 5.80 20.98 8.57V14.14" stroke="#C2C2C6" stroke-width="2.75"/></g><path d="M10.95 14.14V8.57C10.95 5.80 13.19 3.56 15.96 3.56C18.73 3.56 20.98 5.80 20.98 8.57V14.14" stroke="url(#paint0_radial_18_23511)" stroke-width="2.75"/><g filter="url(#filter1_f_18_23511)"><path d="M11.34 14.14V8.38C11.34 5.51 13.63 3.18 16.46 3.18C19.29 3.18 21.59 5.51 21.59 8.38V14.14" stroke="url(#paint1_radial_18_23511)"/><path d="M11.34 14.14V8.38C11.34 5.51 13.63 3.18 16.46 3.18C19.29 3.18 21.59 5.51 21.59 8.38V14.14" stroke="url(#paint2_radial_18_23511)"/></g><g filter="url(#filter2_iiii_18_23511)"><rect x="5.03" y="11.12" width="21.93" height="18.84" rx="3" fill="url(#paint3_linear_18_23511)"/></g><rect x="5.03" y="11.12" width="21.93" height="18.84" rx="3" fill="url(#paint4_radial_18_23511)"/><rect x="5.03" y="11.12" width="21.93" height="18.84" rx="3" fill="url(#paint5_linear_18_23511)"/><rect x="5.03" y="11.12" width="21.93" height="18.84" rx="3" fill="url(#paint6_radial_18_23511)"/><g filter="url(#filter3_f_18_23511)"><path d="M17.39 20.46C18.11 19.99 18.59 19.18 18.59 18.26C18.59 16.82 17.42 15.66 15.98 15.66C14.54 15.66 13.37 16.82 13.37 18.26C13.37 19.20 13.86 20.01 14.60 20.47V23.77C14.60 24.54 15.22 25.17 16 25.17C16.77 25.17 17.39 24.54 17.39 23.77V20.46Z" stroke="url(#paint7_linear_18_23511)" stroke-width="1.75"/><path d="M17.39 20.46C18.11 19.99 18.59 19.18 18.59 18.26C18.59 16.82 17.42 15.66 15.98 15.66C14.54 15.66 13.37 16.82 13.37 18.26C13.37 19.20 13.86 20.01 14.60 20.47V23.77C14.60 24.54 15.22 25.17 16 25.17C16.77 25.17 17.39 24.54 17.39 23.77V20.46Z" stroke="url(#paint8_linear_18_23511)" stroke-width="1.75"/></g><path d="M17.39 20.46C18.11 19.99 18.59 19.18 18.59 18.26C18.59 16.82 17.42 15.66 15.98 15.66C14.54 15.66 13.37 16.82 13.37 18.26C13.37 19.20 13.86 20.01 14.60 20.47V23.77C14.60 24.54 15.22 25.17 16 25.17C16.77 25.17 17.39 24.54 17.39 23.77V20.46Z" fill="url(#paint9_radial_18_23511)"/><defs><filter id="filter0_i_18_23511" x="9.57" y="2.18" width="13.78" height="11.95" filterUnits="userSpaceOnUse" color-interpolation-filters="sRGB"><feFlood flood-opacity="0" result="BackgroundImageFix"/><feBlend mode="normal" in="SourceGraphic" in2="BackgroundImageFix" result="shape"/><feColorMatrix in="SourceAlpha" type="matrix" values="0 0 0 0 0 0 0 0 0 0 0 0 0 0 0 0 0 0 127 0" result="hardAlpha"/><feOffset dx="1"/><feGaussianBlur stdDeviation="0.5"/><feComposite in2="hardAlpha" operator="arithmetic" k2="-1" k3="1"/><feColorMatrix type="matrix" values="0 0 0 0 0.56 0 0 0 0 0.55 0 0 0 0 0.57 0 0 0 1 0"/><feBlend mode="normal" in2="shape" result="effect1_innerShadow_18_23511"/></filter><filter id="filter1_f_18_23511" x="10.09" y="1.93" width="12.75" height="12.95" filterUnits="userSpaceOnUse" color-interpolation-filters="sRGB"><feFlood flood-opacity="0" result="BackgroundImageFix"/><feBlend mode="normal" in="SourceGraphic" in2="BackgroundImageFix" result="shape"/><feGaussianBlur stdDeviation="0.37" result="effect1_foregroundBlur_18_23511"/></filter><filter id="filter2_iiii_18_23511" x="4.28" y="10.37" width="23.43" height="20.34" filterUnits="userSpaceOnUse" color-interpolation-filters="sRGB"><feFlood flood-opacity="0" result="BackgroundImageFix"/><feBlend mode="normal" in="SourceGraphic" in2="BackgroundImageFix" result="shape"/><feColorMatrix in="SourceAlpha" type="matrix" values="0 0 0 0 0 0 0 0 0 0 0 0 0 0 0 0 0 0 127 0" result="hardAlpha"/><feOffset dy="-0.75"/><feGaussianBlur stdDeviation="0.37"/><feComposite in2="hardAlpha" operator="arithmetic" k2="-1" k3="1"/><feColorMatrix type="matrix" values="0 0 0 0 0.89 0 0 0 0 0.36 0 0 0 0 0.42 0 0 0 1 0"/><feBlend mode="normal" in2="shape" result="effect1_innerShadow_18_23511"/><feColorMatrix in="SourceAlpha" type="matrix" values="0 0 0 0 0 0 0 0 0 0 0 0 0 0 0 0 0 0 127 0" result="hardAlpha"/><feOffset dx="-1"/><feGaussianBlur stdDeviation="0.37"/><feComposite in2="hardAlpha" operator="arithmetic" k2="-1" k3="1"/><feColorMatrix type="matrix" values="0 0 0 0 1 0 0 0 0 0.77 0 0 0 0 0.36 0 0 0 1 0"/><feBlend mode="normal" in2="effect1_innerShadow_18_23511" result="effect2_innerShadow_18_23511"/><feColorMatrix in="SourceAlpha" type="matrix" values="0 0 0 0 0 0 0 0 0 0 0 0 0 0 0 0 0 0 127 0" result="hardAlpha"/><feOffset dy="1"/><feGaussianBlur stdDeviation="0.37"/><feComposite in2="hardAlpha" operator="arithmetic" k2="-1" k3="1"/><feColorMatrix type="matrix" values="0 0 0 0 1 0 0 0 0 0.84 0 0 0 0 0.26 0 0 0 1 0"/><feBlend mode="normal" in2="effect2_innerShadow_18_23511" result="effect3_innerShadow_18_23511"/><feColorMatrix in="SourceAlpha" type="matrix" values="0 0 0 0 0 0 0 0 0 0 0 0 0 0 0 0 0 0 127 0" result="hardAlpha"/><feOffset dx="0.75"/><feGaussianBlur stdDeviation="0.37"/><feComposite in2="hardAlpha" operator="arithmetic" k2="-1" k3="1"/><feColorMatrix type="matrix" values="0 0 0 0 0.72 0 0 0 0 0.47 0 0 0 0 0.20 0 0 0 1 0"/><feBlend mode="normal" in2="effect3_innerShadow_18_23511" result="effect4_innerShadow_18_23511"/></filter><filter id="filter3_f_18_23511" x="12.00" y="14.28" width="7.96" height="12.25" filterUnits="userSpaceOnUse" color-interpolation-filters="sRGB"><feFlood flood-opacity="0" result="BackgroundImageFix"/><feBlend mode="normal" in="SourceGraphic" in2="BackgroundImageFix" result="shape"/><feGaussianBlur stdDeviation="0.25" result="effect1_foregroundBlur_18_23511"/></filter><radialGradient id="paint0_radial_18_23511" cx="0" cy="0" r="1" gradientUnits="userSpaceOnUse" gradientTransform="translate(15.96 7.65) rotate(-90) scale(4.84 5.28)"><stop offset="0.53" stop-color="#AB83C0"/><stop offset="1" stop-color="#CBBBDC" stop-opacity="0"/></radialGradient><radialGradient id="paint1_radial_18_23511" cx="0" cy="0" r="1" gradientUnits="userSpaceOnUse" gradientTransform="translate(21.89 4.59) rotate(136.74) scale(5.24 7.20)"><stop offset="0.21" stop-color="#EDECF3"/><stop offset="1" stop-color="#EDECF3" stop-opacity="0"/></radialGradient><radialGradient id="paint2_radial_18_23511" cx="0" cy="0" r="1" gradientUnits="userSpaceOnUse" gradientTransform="translate(12.55 12.65) rotate(-90) scale(7.12 5.16)"><stop stop-color="#EDECF3"/><stop offset="1" stop-color="#EDECF3" stop-opacity="0"/></radialGradient><linearGradient id="paint3_linear_18_23511" x1="10.15" y1="14.18" x2="17.09" y2="29.96" gradientUnits="userSpaceOnUse"><stop stop-color="#FFC74E"/><stop offset="1" stop-color="#F7864E"/></linearGradient><radialGradient id="paint4_radial_18_23511" cx="0" cy="0" r="1" gradientUnits="userSpaceOnUse" gradientTransform="translate(26.40 29.96) rotate(-132.27) scale(3.25 7.57)"><stop stop-color="#FF8650"/><stop offset="1" stop-color="#FF8650" stop-opacity="0"/></radialGradient><linearGradient id="paint5_linear_18_23511" x1="16" y1="10.81" x2="16" y2="12.31" gradientUnits="userSpaceOnUse"><stop stop-color="#F3D04E"/><stop offset="1" stop-color="#F3D04E" stop-opacity="0"/></linearGradient><radialGradient id="paint6_radial_18_23511" cx="0" cy="0" r="1" gradientUnits="userSpaceOnUse" gradientTransform="translate(26.65 11.12) rotate(126.25) scale(2.32 5.25)"><stop stop-color="#FFF760"/><stop offset="1" stop-color="#FFF760" stop-opacity="0"/></radialGradient><linearGradient id="paint7_linear_18_23511" x1="19.12" y1="21.75" x2="15.25" y2="21.75" gradientUnits="userSpaceOnUse"><stop offset="0.33" stop-color="#D98A40"/><stop offset="1" stop-color="#D98A40" stop-opacity="0"/></linearGradient><linearGradient id="paint8_linear_18_23511" x1="12.87" y1="20.81" x2="15.59" y2="20.81" gradientUnits="userSpaceOnUse"><stop stop-color="#FFCD63"/><stop offset="1" stop-color="#FFCD63" stop-opacity="0"/></linearGradient><radialGradient id="paint9_radial_18_23511" cx="0" cy="0" r="1" gradientUnits="userSpaceOnUse" gradientTransform="translate(13.37 18.68) rotate(34.06) scale(5.69 7.82)"><stop offset="0.21" stop-color="#564F80"/><stop offset="1" stop-color="#473154"/></radialGradient></defs></svg>