<svg width="32" height="32" viewBox="0 0 32 32" fill="none" xmlns="http://www.w3.org/2000/svg"><path d="M29.54 16C29.54 23.73 23.27 30 15.54 30C7.81 30 1.54 23.73 1.54 16C1.54 8.26 7.81 2 15.54 2C23.27 2 29.54 8.26 29.54 16Z" fill="url(#paint0_radial_18590_3086)"/><path d="M29.54 16C29.54 23.73 23.27 30 15.54 30C7.81 30 1.54 23.73 1.54 16C1.54 8.26 7.81 2 15.54 2C23.27 2 29.54 8.26 29.54 16Z" fill="url(#paint1_linear_18590_3086)"/><path d="M29.54 16C29.54 23.73 23.27 30 15.54 30C7.81 30 1.54 23.73 1.54 16C1.54 8.26 7.81 2 15.54 2C23.27 2 29.54 8.26 29.54 16Z" fill="url(#paint2_radial_18590_3086)"/><path d="M29.54 16C29.54 23.73 23.27 30 15.54 30C7.81 30 1.54 23.73 1.54 16C1.54 8.26 7.81 2 15.54 2C23.27 2 29.54 8.26 29.54 16Z" fill="url(#paint3_radial_18590_3086)"/><path d="M29.54 16C29.54 23.73 23.27 30 15.54 30C7.81 30 1.54 23.73 1.54 16C1.54 8.26 7.81 2 15.54 2C23.27 2 29.54 8.26 29.54 16Z" fill="url(#paint4_radial_18590_3086)"/><defs><radialGradient id="paint0_radial_18590_3086" cx="0" cy="0" r="1" gradientUnits="userSpaceOnUse" gradientTransform="translate(23.72 8.75) rotate(130.16) scale(27.80)"><stop offset="0.11" stop-color="#8971BD"/><stop offset="0.85" stop-color="#7047B7"/></radialGradient><linearGradient id="paint1_linear_18590_3086" x1="15.54" y1="2" x2="15.54" y2="8.5" gradientUnits="userSpaceOnUse"><stop stop-color="#8171AA"/><stop offset="1" stop-color="#8171AA" stop-opacity="0"/></linearGradient><radialGradient id="paint2_radial_18590_3086" cx="0" cy="0" r="1" gradientUnits="userSpaceOnUse" gradientTransform="translate(24.22 10.75) rotate(137.28) scale(12.89 11.90)"><stop stop-color="#A087D8"/><stop offset="1" stop-color="#9879D7" stop-opacity="0"/></radialGradient><radialGradient id="paint3_radial_18590_3086" cx="0" cy="0" r="1" gradientUnits="userSpaceOnUse" gradientTransform="translate(20.03 16) rotate(180) scale(19.25 20)"><stop offset="0.62" stop-color="#6E56A1" stop-opacity="0"/><stop offset="0.95" stop-color="#AFA6CB"/></radialGradient><radialGradient id="paint4_radial_18590_3086" cx="0" cy="0" r="1" gradientUnits="userSpaceOnUse" gradientTransform="translate(15.54 9) rotate(90) scale(21 23.32)"><stop offset="0.86" stop-color="#743EC3" stop-opacity="0"/><stop offset="1" stop-color="#8352CA"/></radialGradient></defs></svg>