<svg width="32" height="32" viewBox="0 0 32 32" fill="none" xmlns="http://www.w3.org/2000/svg"><path d="M26.33 8.62L23.38 5.67L5.67 23.38L8.62 26.33C13.51 31.22 21.44 31.22 26.33 26.33C31.22 21.44 31.22 13.51 26.33 8.62Z" fill="url(#paint0_linear_18_30155)"/><path d="M26.33 8.62L23.38 5.67L5.67 23.38L8.62 26.33C13.51 31.22 21.44 31.22 26.33 26.33C31.22 21.44 31.22 13.51 26.33 8.62Z" fill="url(#paint1_radial_18_30155)"/><path d="M14.53 27.06C21.45 27.06 27.06 21.45 27.06 14.53C27.06 7.60 21.45 2 14.53 2C7.61 2 2.00 7.60 2.00 14.53C2.00 21.45 7.61 27.06 14.53 27.06Z" fill="#ABD837"/><path d="M14.53 27.06C21.45 27.06 27.06 21.45 27.06 14.53C27.06 7.60 21.45 2 14.53 2C7.61 2 2.00 7.60 2.00 14.53C2.00 21.45 7.61 27.06 14.53 27.06Z" fill="url(#paint2_radial_18_30155)"/><path d="M14.53 27.06C21.45 27.06 27.06 21.45 27.06 14.53C27.06 7.60 21.45 2 14.53 2C7.61 2 2.00 7.60 2.00 14.53C2.00 21.45 7.61 27.06 14.53 27.06Z" fill="url(#paint3_radial_18_30155)"/><path d="M14.53 27.06C21.45 27.06 27.06 21.45 27.06 14.53C27.06 7.60 21.45 2 14.53 2C7.61 2 2.00 7.60 2.00 14.53C2.00 21.45 7.61 27.06 14.53 27.06Z" fill="url(#paint4_radial_18_30155)"/><path d="M14.53 20.15C17.63 20.15 20.15 17.63 20.15 14.53C20.15 11.42 17.63 8.91 14.53 8.91C11.42 8.91 8.91 11.42 8.91 14.53C8.91 17.63 11.42 20.15 14.53 20.15Z" fill="#E5F892"/><g filter="url(#filter0_f_18_30155)"><path d="M20.15 9.74C20.69 9.74 21.13 9.31 21.13 8.76C21.13 8.22 20.69 7.78 20.15 7.78C19.61 7.78 19.17 8.22 19.17 8.76C19.17 9.31 19.61 9.74 20.15 9.74Z" fill="#7BAE29"/></g><g filter="url(#filter1_f_18_30155)"><path d="M22.60 14.72C23.15 14.72 23.58 14.28 23.58 13.74C23.58 13.19 23.15 12.76 22.60 12.76C22.06 12.76 21.62 13.19 21.62 13.74C21.62 14.28 22.06 14.72 22.60 14.72Z" fill="#7BAE29"/></g><g filter="url(#filter2_f_18_30155)"><path d="M21.44 19.68C21.98 19.68 22.42 19.24 22.42 18.7C22.42 18.15 21.98 17.72 21.44 17.72C20.90 17.72 20.46 18.15 20.46 18.7C20.46 19.24 20.90 19.68 21.44 19.68Z" fill="#7BAE29"/></g><g filter="url(#filter3_f_18_30155)"><path d="M17.68 23.4C18.22 23.4 18.66 22.96 18.66 22.42C18.66 21.87 18.22 21.44 17.68 21.44C17.13 21.44 16.7 21.87 16.7 22.42C16.7 22.96 17.13 23.4 17.68 23.4Z" fill="#7BAE29"/></g><g filter="url(#filter4_f_18_30155)"><path d="M12.49 23.96C13.03 23.96 13.47 23.52 13.47 22.98C13.47 22.44 13.03 22.00 12.49 22.00C11.95 22.00 11.51 22.44 11.51 22.98C11.51 23.52 11.95 23.96 12.49 23.96Z" fill="#7BAE29"/></g><g filter="url(#filter5_f_18_30155)"><path d="M8.01 21.65C8.55 21.65 8.99 21.21 8.99 20.67C8.99 20.12 8.55 19.69 8.01 19.69C7.47 19.69 7.03 20.12 7.03 20.67C7.03 21.21 7.47 21.65 8.01 21.65Z" fill="#7BAE29"/></g><g filter="url(#filter6_f_18_30155)"><path d="M5.48 16.49C6.02 16.49 6.46 16.05 6.46 15.51C6.46 14.96 6.02 14.53 5.48 14.53C4.93 14.53 4.50 14.96 4.50 15.51C4.50 16.05 4.93 16.49 5.48 16.49Z" fill="#7BAE29"/></g><g filter="url(#filter7_f_18_30155)"><path d="M6.65 11.45C7.19 11.45 7.63 11.02 7.63 10.47C7.63 9.93 7.19 9.49 6.65 9.49C6.11 9.49 5.67 9.93 5.67 10.47C5.67 11.02 6.11 11.45 6.65 11.45Z" fill="#7BAE29"/></g><path d="M20.46 9.47C21.00 9.47 21.44 9.03 21.44 8.49C21.44 7.94 21.00 7.51 20.46 7.51C19.92 7.51 19.48 7.94 19.48 8.49C19.48 9.03 19.92 9.47 20.46 9.47Z" fill="url(#paint5_radial_18_30155)"/><path d="M8.49 21.44C9.03 21.44 9.47 21.00 9.47 20.46C9.47 19.91 9.03 19.48 8.49 19.48C7.95 19.48 7.51 19.91 7.51 20.46C7.51 21.00 7.95 21.44 8.49 21.44Z" fill="url(#paint6_radial_18_30155)"/><path d="M15.94 7.12C16.48 7.12 16.92 6.68 16.92 6.14C16.92 5.59 16.48 5.16 15.94 5.16C15.40 5.16 14.96 5.59 14.96 6.14C14.96 6.68 15.40 7.12 15.94 7.12Z" fill="url(#paint7_linear_18_30155)"/><g filter="url(#filter8_f_18_30155)"><path d="M15.51 7.29C16.05 7.29 16.49 6.85 16.49 6.31C16.49 5.77 16.05 5.33 15.51 5.33C14.97 5.33 14.53 5.77 14.53 6.31C14.53 6.85 14.97 7.29 15.51 7.29Z" fill="#7BAE29"/></g><path d="M15.94 7.12C16.48 7.12 16.92 6.68 16.92 6.14C16.92 5.59 16.48 5.16 15.94 5.16C15.40 5.16 14.96 5.59 14.96 6.14C14.96 6.68 15.40 7.12 15.94 7.12Z" fill="url(#paint8_radial_18_30155)"/><path d="M13.00 23.79C13.54 23.79 13.98 23.35 13.98 22.81C13.98 22.26 13.54 21.83 13.00 21.83C12.46 21.83 12.02 22.26 12.02 22.81C12.02 23.35 12.46 23.79 13.00 23.79Z" fill="url(#paint9_radial_18_30155)"/><g filter="url(#filter9_f_18_30155)"><path d="M10.45 8.06C10.99 8.06 11.43 7.63 11.43 7.08C11.43 6.54 10.99 6.10 10.45 6.10C9.91 6.10 9.47 6.54 9.47 7.08C9.47 7.63 9.91 8.06 10.45 8.06Z" fill="#7BAE29"/></g><path d="M10.90 7.78C11.44 7.78 11.88 7.35 11.88 6.80C11.88 6.26 11.44 5.82 10.90 5.82C10.36 5.82 9.92 6.26 9.92 6.80C9.92 7.35 10.36 7.78 10.90 7.78Z" fill="url(#paint10_radial_18_30155)"/><path d="M18.05 23.11C18.59 23.11 19.03 22.68 19.03 22.13C19.03 21.59 18.59 21.15 18.05 21.15C17.51 21.15 17.07 21.59 17.07 22.13C17.07 22.68 17.51 23.11 18.05 23.11Z" fill="url(#paint11_radial_18_30155)"/><path d="M7.15 11.22C7.69 11.22 8.13 10.78 8.13 10.24C8.13 9.69 7.69 9.26 7.15 9.26C6.61 9.26 6.17 9.69 6.17 10.24C6.17 10.78 6.61 11.22 7.15 11.22Z" fill="url(#paint12_radial_18_30155)"/><path d="M21.80 19.68C22.34 19.68 22.78 19.24 22.78 18.7C22.78 18.15 22.34 17.72 21.80 17.72C21.26 17.72 20.82 18.15 20.82 18.7C20.82 19.24 21.26 19.68 21.80 19.68Z" fill="url(#paint13_radial_18_30155)"/><path d="M6.05 16.19C6.59 16.19 7.03 15.75 7.03 15.21C7.03 14.66 6.59 14.23 6.05 14.23C5.51 14.23 5.07 14.66 5.07 15.21C5.07 15.75 5.51 16.19 6.05 16.19Z" fill="url(#paint14_radial_18_30155)"/><path d="M22.90 14.72C23.44 14.72 23.88 14.28 23.88 13.74C23.88 13.19 23.44 12.76 22.90 12.76C22.36 12.76 21.92 13.19 21.92 13.74C21.92 14.28 22.36 14.72 22.90 14.72Z" fill="url(#paint15_radial_18_30155)"/><defs><filter id="filter0_f_18_30155" x="18.17" y="6.78" width="3.95" height="3.95" filterUnits="userSpaceOnUse" color-interpolation-filters="sRGB"><feFlood flood-opacity="0" result="BackgroundImageFix"/><feBlend mode="normal" in="SourceGraphic" in2="BackgroundImageFix" result="shape"/><feGaussianBlur stdDeviation="0.5" result="effect1_foregroundBlur_18_30155"/></filter><filter id="filter1_f_18_30155" x="20.62" y="11.76" width="3.95" height="3.95" filterUnits="userSpaceOnUse" color-interpolation-filters="sRGB"><feFlood flood-opacity="0" result="BackgroundImageFix"/><feBlend mode="normal" in="SourceGraphic" in2="BackgroundImageFix" result="shape"/><feGaussianBlur stdDeviation="0.5" result="effect1_foregroundBlur_18_30155"/></filter><filter id="filter2_f_18_30155" x="19.46" y="16.72" width="3.95" height="3.95" filterUnits="userSpaceOnUse" color-interpolation-filters="sRGB"><feFlood flood-opacity="0" result="BackgroundImageFix"/><feBlend mode="normal" in="SourceGraphic" in2="BackgroundImageFix" result="shape"/><feGaussianBlur stdDeviation="0.5" result="effect1_foregroundBlur_18_30155"/></filter><filter id="filter3_f_18_30155" x="15.7" y="20.44" width="3.95" height="3.95" filterUnits="userSpaceOnUse" color-interpolation-filters="sRGB"><feFlood flood-opacity="0" result="BackgroundImageFix"/><feBlend mode="normal" in="SourceGraphic" in2="BackgroundImageFix" result="shape"/><feGaussianBlur stdDeviation="0.5" result="effect1_foregroundBlur_18_30155"/></filter><filter id="filter4_f_18_30155" x="10.51" y="21.00" width="3.95" height="3.95" filterUnits="userSpaceOnUse" color-interpolation-filters="sRGB"><feFlood flood-opacity="0" result="BackgroundImageFix"/><feBlend mode="normal" in="SourceGraphic" in2="BackgroundImageFix" result="shape"/><feGaussianBlur stdDeviation="0.5" result="effect1_foregroundBlur_18_30155"/></filter><filter id="filter5_f_18_30155" x="6.03" y="18.69" width="3.95" height="3.95" filterUnits="userSpaceOnUse" color-interpolation-filters="sRGB"><feFlood flood-opacity="0" result="BackgroundImageFix"/><feBlend mode="normal" in="SourceGraphic" in2="BackgroundImageFix" result="shape"/><feGaussianBlur stdDeviation="0.5" result="effect1_foregroundBlur_18_30155"/></filter><filter id="filter6_f_18_30155" x="3.50" y="13.53" width="3.95" height="3.95" filterUnits="userSpaceOnUse" color-interpolation-filters="sRGB"><feFlood flood-opacity="0" result="BackgroundImageFix"/><feBlend mode="normal" in="SourceGraphic" in2="BackgroundImageFix" result="shape"/><feGaussianBlur stdDeviation="0.5" result="effect1_foregroundBlur_18_30155"/></filter><filter id="filter7_f_18_30155" x="4.67" y="8.49" width="3.95" height="3.95" filterUnits="userSpaceOnUse" color-interpolation-filters="sRGB"><feFlood flood-opacity="0" result="BackgroundImageFix"/><feBlend mode="normal" in="SourceGraphic" in2="BackgroundImageFix" result="shape"/><feGaussianBlur stdDeviation="0.5" result="effect1_foregroundBlur_18_30155"/></filter><filter id="filter8_f_18_30155" x="13.53" y="4.33" width="3.95" height="3.95" filterUnits="userSpaceOnUse" color-interpolation-filters="sRGB"><feFlood flood-opacity="0" result="BackgroundImageFix"/><feBlend mode="normal" in="SourceGraphic" in2="BackgroundImageFix" result="shape"/><feGaussianBlur stdDeviation="0.5" result="effect1_foregroundBlur_18_30155"/></filter><filter id="filter9_f_18_30155" x="8.47" y="5.10" width="3.95" height="3.95" filterUnits="userSpaceOnUse" color-interpolation-filters="sRGB"><feFlood flood-opacity="0" result="BackgroundImageFix"/><feBlend mode="normal" in="SourceGraphic" in2="BackgroundImageFix" result="shape"/><feGaussianBlur stdDeviation="0.5" result="effect1_foregroundBlur_18_30155"/></filter><linearGradient id="paint0_linear_18_30155" x1="29.56" y1="13.75" x2="14.87" y2="31.56" gradientUnits="userSpaceOnUse"><stop stop-color="#A76051"/><stop offset="0.46" stop-color="#9D5952"/><stop offset="0.73" stop-color="#8B5863"/><stop offset="1" stop-color="#67405C"/></linearGradient><radialGradient id="paint1_radial_18_30155" cx="0" cy="0" r="1" gradientUnits="userSpaceOnUse" gradientTransform="translate(27.5 14.81) rotate(123.02) scale(7.45 18.01)"><stop stop-color="#D29280"/><stop offset="1" stop-color="#D2927F" stop-opacity="0"/></radialGradient><radialGradient id="paint2_radial_18_30155" cx="0" cy="0" r="1" gradientUnits="userSpaceOnUse" gradientTransform="translate(15.06 14.87) rotate(98.40) scale(14.53)"><stop stop-color="#AEDD38" stop-opacity="0"/><stop offset="0.77" stop-color="#A7D335" stop-opacity="0.31"/><stop offset="0.86" stop-color="#98BD30"/><stop offset="0.91" stop-color="#7FA91C"/></radialGradient><radialGradient id="paint3_radial_18_30155" cx="0" cy="0" r="1" gradientUnits="userSpaceOnUse" gradientTransform="translate(13.68 14.53) rotate(66.81) scale(14.92)"><stop stop-color="#AEDE37" stop-opacity="0"/><stop offset="0.82" stop-color="#D6F76C" stop-opacity="0"/><stop offset="0.92" stop-color="#E4FF7E"/></radialGradient><radialGradient id="paint4_radial_18_30155" cx="0" cy="0" r="1" gradientUnits="userSpaceOnUse" gradientTransform="translate(14.53 14.53) rotate(90) scale(15.59)"><stop stop-color="#B4E637"/><stop offset="1" stop-color="#B1E138" stop-opacity="0"/></radialGradient><radialGradient id="paint5_radial_18_30155" cx="0" cy="0" r="1" gradientUnits="userSpaceOnUse" gradientTransform="translate(20.85 8.40) rotate(158.39) scale(1.69)"><stop offset="0.00" stop-color="#7B6D83"/><stop offset="0.36" stop-color="#533E60"/><stop offset="0.71" stop-color="#584D5D"/><stop offset="1" stop-color="#1C1C1C"/></radialGradient><radialGradient id="paint6_radial_18_30155" cx="0" cy="0" r="1" gradientUnits="userSpaceOnUse" gradientTransform="translate(8.88 20.37) rotate(158.39) scale(1.69)"><stop offset="0.00" stop-color="#7B6D83"/><stop offset="0.36" stop-color="#533E60"/><stop offset="0.71" stop-color="#584D5D"/><stop offset="1" stop-color="#1C1C1C"/></radialGradient><linearGradient id="paint7_linear_18_30155" x1="16.59" y1="5.39" x2="15.20" y2="6.78" gradientUnits="userSpaceOnUse"><stop offset="0.00" stop-color="#513468"/><stop offset="1" stop-color="#1C1C1C"/></linearGradient><radialGradient id="paint8_radial_18_30155" cx="0" cy="0" r="1" gradientUnits="userSpaceOnUse" gradientTransform="translate(16.33 6.05) rotate(158.39) scale(1.69)"><stop offset="0.00" stop-color="#7B6D83"/><stop offset="0.36" stop-color="#533E60"/><stop offset="0.71" stop-color="#584D5D"/><stop offset="1" stop-color="#1C1C1C"/></radialGradient><radialGradient id="paint9_radial_18_30155" cx="0" cy="0" r="1" gradientUnits="userSpaceOnUse" gradientTransform="translate(13.39 22.72) rotate(158.39) scale(1.69 1.69)"><stop offset="0.00" stop-color="#7B6D83"/><stop offset="0.36" stop-color="#533E60"/><stop offset="0.71" stop-color="#584D5D"/><stop offset="1" stop-color="#1C1C1C"/></radialGradient><radialGradient id="paint10_radial_18_30155" cx="0" cy="0" r="1" gradientUnits="userSpaceOnUse" gradientTransform="translate(11.29 6.72) rotate(158.39) scale(1.69)"><stop offset="0.00" stop-color="#7B6D83"/><stop offset="0.36" stop-color="#533E60"/><stop offset="0.71" stop-color="#584D5D"/><stop offset="1" stop-color="#1C1C1C"/></radialGradient><radialGradient id="paint11_radial_18_30155" cx="0" cy="0" r="1" gradientUnits="userSpaceOnUse" gradientTransform="translate(18.44 22.05) rotate(158.39) scale(1.69)"><stop offset="0.00" stop-color="#7B6D83"/><stop offset="0.36" stop-color="#533E60"/><stop offset="0.71" stop-color="#584D5D"/><stop offset="1" stop-color="#1C1C1C"/></radialGradient><radialGradient id="paint12_radial_18_30155" cx="0" cy="0" r="1" gradientUnits="userSpaceOnUse" gradientTransform="translate(7.54 10.15) rotate(158.39) scale(1.69)"><stop offset="0.00" stop-color="#7B6D83"/><stop offset="0.36" stop-color="#533E60"/><stop offset="0.71" stop-color="#584D5D"/><stop offset="1" stop-color="#1C1C1C"/></radialGradient><radialGradient id="paint13_radial_18_30155" cx="0" cy="0" r="1" gradientUnits="userSpaceOnUse" gradientTransform="translate(22.19 18.61) rotate(158.39) scale(1.69)"><stop offset="0.00" stop-color="#7B6D83"/><stop offset="0.36" stop-color="#533E60"/><stop offset="0.71" stop-color="#584D5D"/><stop offset="1" stop-color="#1C1C1C"/></radialGradient><radialGradient id="paint14_radial_18_30155" cx="0" cy="0" r="1" gradientUnits="userSpaceOnUse" gradientTransform="translate(6.44 15.12) rotate(158.39) scale(1.69)"><stop offset="0.00" stop-color="#7B6D83"/><stop offset="0.36" stop-color="#533E60"/><stop offset="0.71" stop-color="#584D5D"/><stop offset="1" stop-color="#1C1C1C"/></radialGradient><radialGradient id="paint15_radial_18_30155" cx="0" cy="0" r="1" gradientUnits="userSpaceOnUse" gradientTransform="translate(23.29 13.65) rotate(158.39) scale(1.69)"><stop offset="0.00" stop-color="#7B6D83"/><stop offset="0.36" stop-color="#533E60"/><stop offset="0.71" stop-color="#584D5D"/><stop offset="1" stop-color="#1C1C1C"/></radialGradient></defs></svg>