<svg width="32" height="32" viewBox="0 0 32 32" fill="none" xmlns="http://www.w3.org/2000/svg"><path d="M16.16 7.50V4.42H13.12C12.54 4.42 12.07 4.89 12.07 5.48V6.85C12.07 9.16 11.34 11.34 9.59 12.80L5.81 15.98C1.23 19.83 3.91 27.40 9.84 27.40H15.27C15.27 27.40 16.16 13.36 16.16 7.50Z" fill="#B8897D"/><path d="M16.16 7.50V4.42H13.12C12.54 4.42 12.07 4.89 12.07 5.48V6.85C12.07 9.16 11.34 11.34 9.59 12.80L5.81 15.98C1.23 19.83 3.91 27.40 9.84 27.40H15.27C15.27 27.40 16.16 13.36 16.16 7.50Z" fill="url(#paint0_linear_18_30809)"/><path d="M16.16 7.50V4.42H13.12C12.54 4.42 12.07 4.89 12.07 5.48V6.85C12.07 9.16 11.34 11.34 9.59 12.80L5.81 15.98C1.23 19.83 3.91 27.40 9.84 27.40H15.27C15.27 27.40 16.16 13.36 16.16 7.50Z" fill="url(#paint1_radial_18_30809)"/><path d="M16.16 7.50V4.42H13.12C12.54 4.42 12.07 4.89 12.07 5.48V6.85C12.07 9.16 11.34 11.34 9.59 12.80L5.81 15.98C1.23 19.83 3.91 27.40 9.84 27.40H15.27C15.27 27.40 16.16 13.36 16.16 7.50Z" fill="url(#paint2_radial_18_30809)"/><path d="M16.16 7.50V4.42H13.12C12.54 4.42 12.07 4.89 12.07 5.48V6.85C12.07 9.16 11.34 11.34 9.59 12.80L5.81 15.98C1.23 19.83 3.91 27.40 9.84 27.40H15.27C15.27 27.40 16.16 13.36 16.16 7.50Z" fill="url(#paint3_linear_18_30809)"/><g filter="url(#filter0_f_18_30809)"><path d="M14.90 5.77C14.90 5.50 14.66 5.27 14.42 5.40C14.21 5.51 14.03 5.70 14.03 6.01C14.03 8.16 14.34 11.52 13.34 13.5C12.19 15.75 10.27 15.88 9.18 18.40C7.71 21.81 9.18 26.87 12.96 26.87C14.58 23.14 14.86 8.65 14.90 5.77Z" fill="url(#paint4_linear_18_30809)"/></g><path d="M15.80 4.42H18.86C19.44 4.42 19.90 4.89 19.90 5.48V6.85C19.90 9.16 20.63 11.34 22.38 12.80L26.15 15.98C30.73 19.83 28.05 27.40 22.12 27.40H16.69C16.69 27.40 15.80 12.16 15.80 4.42Z" fill="#FFC6AD"/><path d="M15.80 4.42H18.86C19.44 4.42 19.90 4.89 19.90 5.48V6.85C19.90 9.16 20.63 11.34 22.38 12.80L26.15 15.98C30.73 19.83 28.05 27.40 22.12 27.40H16.69C16.69 27.40 15.80 12.16 15.80 4.42Z" fill="url(#paint5_radial_18_30809)"/><path d="M15.80 4.42H18.86C19.44 4.42 19.90 4.89 19.90 5.48V6.85C19.90 9.16 20.63 11.34 22.38 12.80L26.15 15.98C30.73 19.83 28.05 27.40 22.12 27.40H16.69C16.69 27.40 15.80 12.16 15.80 4.42Z" fill="url(#paint6_radial_18_30809)"/><path d="M15.80 4.42H18.86C19.44 4.42 19.90 4.89 19.90 5.48V6.85C19.90 9.16 20.63 11.34 22.38 12.80L26.15 15.98C30.73 19.83 28.05 27.40 22.12 27.40H16.69C16.69 27.40 15.80 12.16 15.80 4.42Z" fill="url(#paint7_radial_18_30809)"/><path d="M15.80 4.42H18.86C19.44 4.42 19.90 4.89 19.90 5.48V6.85C19.90 9.16 20.63 11.34 22.38 12.80L26.15 15.98C30.73 19.83 28.05 27.40 22.12 27.40H16.69C16.69 27.40 15.80 12.16 15.80 4.42Z" fill="url(#paint8_linear_18_30809)"/><g filter="url(#filter1_f_18_30809)"><path d="M18.33 6.15C18.34 5.70 18.01 5.36 17.68 5.17C17.43 5.02 17.20 5.24 17.22 5.53L18.63 26.87C22.67 26.87 25.80 22.29 23.12 17.18C22.06 15.15 20.51 13.93 19.09 11.53C18.04 9.76 18.27 8.09 18.33 6.15Z" fill="url(#paint9_linear_18_30809)"/></g><path d="M17.62 7.57L17.67 4.93C17.67 4.65 17.45 4.42 17.17 4.42H14.78C14.49 4.42 14.27 4.66 14.28 4.95L14.43 7.57C14.46 8.29 14.37 10.35 13.70 11.68C12.55 13.95 11.28 14.82 9.87 17.18C7.84 20.57 9.34 27.40 13.57 27.40H18.31C22.06 27.40 24.68 22.29 22.20 17.18C21.21 15.15 19.66 14.08 18.34 11.68C17.62 10.38 17.58 8.51 17.62 7.57Z" fill="url(#paint10_radial_18_30809)"/><path d="M17.62 7.57L17.67 4.93C17.67 4.65 17.45 4.42 17.17 4.42H14.78C14.49 4.42 14.27 4.66 14.28 4.95L14.43 7.57C14.46 8.29 14.37 10.35 13.70 11.68C12.55 13.95 11.28 14.82 9.87 17.18C7.84 20.57 9.34 27.40 13.57 27.40H18.31C22.06 27.40 24.68 22.29 22.20 17.18C21.21 15.15 19.66 14.08 18.34 11.68C17.62 10.38 17.58 8.51 17.62 7.57Z" fill="url(#paint11_radial_18_30809)"/><path d="M17.62 7.57L17.67 4.93C17.67 4.65 17.45 4.42 17.17 4.42H14.78C14.49 4.42 14.27 4.66 14.28 4.95L14.43 7.57C14.46 8.29 14.37 10.35 13.70 11.68C12.55 13.95 11.28 14.82 9.87 17.18C7.84 20.57 9.34 27.40 13.57 27.40H18.31C22.06 27.40 24.68 22.29 22.20 17.18C21.21 15.15 19.66 14.08 18.34 11.68C17.62 10.38 17.58 8.51 17.62 7.57Z" fill="url(#paint12_radial_18_30809)"/><path d="M17.62 7.57L17.67 4.93C17.67 4.65 17.45 4.42 17.17 4.42H14.78C14.49 4.42 14.27 4.66 14.28 4.95L14.43 7.57C14.46 8.29 14.37 10.35 13.70 11.68C12.55 13.95 11.28 14.82 9.87 17.18C7.84 20.57 9.34 27.40 13.57 27.40H18.31C22.06 27.40 24.68 22.29 22.20 17.18C21.21 15.15 19.66 14.08 18.34 11.68C17.62 10.38 17.58 8.51 17.62 7.57Z" fill="url(#paint13_radial_18_30809)"/><path d="M17.62 7.57L17.67 4.93C17.67 4.65 17.45 4.42 17.17 4.42H14.78C14.49 4.42 14.27 4.66 14.28 4.95L14.43 7.57C14.46 8.29 14.37 10.35 13.70 11.68C12.55 13.95 11.28 14.82 9.87 17.18C7.84 20.57 9.34 27.40 13.57 27.40H18.31C22.06 27.40 24.68 22.29 22.20 17.18C21.21 15.15 19.66 14.08 18.34 11.68C17.62 10.38 17.58 8.51 17.62 7.57Z" fill="url(#paint14_radial_18_30809)"/><path d="M17.62 7.57L17.67 4.93C17.67 4.65 17.45 4.42 17.17 4.42H14.78C14.49 4.42 14.27 4.66 14.28 4.95L14.43 7.57C14.46 8.29 14.37 10.35 13.70 11.68C12.55 13.95 11.28 14.82 9.87 17.18C7.84 20.57 9.34 27.40 13.57 27.40H18.31C22.06 27.40 24.68 22.29 22.20 17.18C21.21 15.15 19.66 14.08 18.34 11.68C17.62 10.38 17.58 8.51 17.62 7.57Z" fill="url(#paint15_radial_18_30809)"/><path d="M17.62 7.57L17.67 4.93C17.67 4.65 17.45 4.42 17.17 4.42H14.78C14.49 4.42 14.27 4.66 14.28 4.95L14.43 7.57C14.46 8.29 14.37 10.35 13.70 11.68C12.55 13.95 11.28 14.82 9.87 17.18C7.84 20.57 9.34 27.40 13.57 27.40H18.31C22.06 27.40 24.68 22.29 22.20 17.18C21.21 15.15 19.66 14.08 18.34 11.68C17.62 10.38 17.58 8.51 17.62 7.57Z" fill="url(#paint16_radial_18_30809)"/><path d="M17.62 7.57L17.67 4.93C17.67 4.65 17.45 4.42 17.17 4.42H14.78C14.49 4.42 14.27 4.66 14.28 4.95L14.43 7.57C14.46 8.29 14.37 10.35 13.70 11.68C12.55 13.95 11.28 14.82 9.87 17.18C7.84 20.57 9.34 27.40 13.57 27.40H18.31C22.06 27.40 24.68 22.29 22.20 17.18C21.21 15.15 19.66 14.08 18.34 11.68C17.62 10.38 17.58 8.51 17.62 7.57Z" fill="url(#paint17_radial_18_30809)"/><g filter="url(#filter2_f_18_30809)"><path d="M14.81 5.15C14.68 4.95 14.53 4.94 14.46 4.96C14.71 8.37 14.46 9.62 14.15 11.46C14.96 10 14.96 5.40 14.81 5.15Z" fill="url(#paint18_linear_18_30809)"/></g><g filter="url(#filter3_f_18_30809)"><rect x="15.46" y="5.04" width="1.28" height="5.60" fill="url(#paint19_linear_18_30809)"/></g><defs><filter id="filter0_f_18_30809" x="7.62" y="4.36" width="8.27" height="23.50" filterUnits="userSpaceOnUse" color-interpolation-filters="sRGB"><feFlood flood-opacity="0" result="BackgroundImageFix"/><feBlend mode="normal" in="SourceGraphic" in2="BackgroundImageFix" result="shape"/><feGaussianBlur stdDeviation="0.5" result="effect1_foregroundBlur_18_30809"/></filter><filter id="filter1_f_18_30809" x="16.22" y="4.12" width="8.90" height="23.74" filterUnits="userSpaceOnUse" color-interpolation-filters="sRGB"><feFlood flood-opacity="0" result="BackgroundImageFix"/><feBlend mode="normal" in="SourceGraphic" in2="BackgroundImageFix" result="shape"/><feGaussianBlur stdDeviation="0.5" result="effect1_foregroundBlur_18_30809"/></filter><filter id="filter2_f_18_30809" x="13.65" y="4.46" width="1.73" height="7.50" filterUnits="userSpaceOnUse" color-interpolation-filters="sRGB"><feFlood flood-opacity="0" result="BackgroundImageFix"/><feBlend mode="normal" in="SourceGraphic" in2="BackgroundImageFix" result="shape"/><feGaussianBlur stdDeviation="0.25" result="effect1_foregroundBlur_18_30809"/></filter><filter id="filter3_f_18_30809" x="14.96" y="4.54" width="2.28" height="6.60" filterUnits="userSpaceOnUse" color-interpolation-filters="sRGB"><feFlood flood-opacity="0" result="BackgroundImageFix"/><feBlend mode="normal" in="SourceGraphic" in2="BackgroundImageFix" result="shape"/><feGaussianBlur stdDeviation="0.25" result="effect1_foregroundBlur_18_30809"/></filter><linearGradient id="paint0_linear_18_30809" x1="9.83" y1="4.42" x2="9.83" y2="27.40" gradientUnits="userSpaceOnUse"><stop stop-color="#B38780"/><stop offset="0.43" stop-color="#B98C7D"/><stop offset="0.77" stop-color="#C2888B"/><stop offset="1" stop-color="#B14C8B"/></linearGradient><radialGradient id="paint1_radial_18_30809" cx="0" cy="0" r="1" gradientUnits="userSpaceOnUse" gradientTransform="translate(5.62 11.93) rotate(124.99) scale(9.15 5.80)"><stop stop-color="#977666"/><stop offset="0.64" stop-color="#765A4D" stop-opacity="0.26"/><stop offset="1" stop-color="#6B5045" stop-opacity="0"/></radialGradient><radialGradient id="paint2_radial_18_30809" cx="0" cy="0" r="1" gradientUnits="userSpaceOnUse" gradientTransform="translate(9.12 21.93) rotate(77.39) scale(4.86 4.52)"><stop stop-color="#B35889"/><stop offset="0.90" stop-color="#B16B84" stop-opacity="0"/></radialGradient><linearGradient id="paint3_linear_18_30809" x1="11.18" y1="5.31" x2="12.09" y2="6.96" gradientUnits="userSpaceOnUse"><stop stop-color="#967666"/><stop offset="0.38" stop-color="#957665" stop-opacity="0"/></linearGradient><linearGradient id="paint4_linear_18_30809" x1="11.59" y1="4.42" x2="11.59" y2="26.96" gradientUnits="userSpaceOnUse"><stop stop-color="#94676F"/><stop offset="1" stop-color="#A85284"/></linearGradient><radialGradient id="paint5_radial_18_30809" cx="0" cy="0" r="1" gradientUnits="userSpaceOnUse" gradientTransform="translate(26.5 19.06) rotate(90) scale(8.34 5.81)"><stop stop-color="#FFEAD4"/><stop offset="0.59" stop-color="#FFCAB0"/><stop offset="1" stop-color="#FFC7AE"/></radialGradient><radialGradient id="paint6_radial_18_30809" cx="0" cy="0" r="1" gradientUnits="userSpaceOnUse" gradientTransform="translate(21.93 26.31) rotate(72.41) scale(9.30 9.02)"><stop stop-color="#AF478A"/><stop offset="0.26" stop-color="#BA558B"/><stop offset="0.95" stop-color="#D17295" stop-opacity="0"/></radialGradient><radialGradient id="paint7_radial_18_30809" cx="0" cy="0" r="1" gradientUnits="userSpaceOnUse" gradientTransform="translate(22.75 6.81) rotate(84.45) scale(8.41 6.30)"><stop offset="0.51" stop-color="#FFEED5"/><stop offset="0.69" stop-color="#FFEBD4" stop-opacity="0"/></radialGradient><linearGradient id="paint8_linear_18_30809" x1="22.13" y1="4.42" x2="22.13" y2="27.40" gradientUnits="userSpaceOnUse"><stop stop-color="#D1A690"/><stop offset="0.01" stop-color="#CFA58F" stop-opacity="0"/></linearGradient><linearGradient id="paint9_linear_18_30809" x1="20.65" y1="5" x2="20.65" y2="26.87" gradientUnits="userSpaceOnUse"><stop stop-color="#D29C97"/><stop offset="0.38" stop-color="#DCA996"/><stop offset="0.69" stop-color="#DF999F"/><stop offset="0.87" stop-color="#BB578C"/><stop offset="1" stop-color="#B9538A"/></linearGradient><radialGradient id="paint10_radial_18_30809" cx="0" cy="0" r="1" gradientUnits="userSpaceOnUse" gradientTransform="translate(22.56 18.87) rotate(167.54) scale(13.91 18.26)"><stop stop-color="#FFFEDC"/><stop offset="0.38" stop-color="#EDC3B2"/><stop offset="0.79" stop-color="#B6A18C"/><stop offset="1" stop-color="#B08886"/></radialGradient><radialGradient id="paint11_radial_18_30809" cx="0" cy="0" r="1" gradientUnits="userSpaceOnUse" gradientTransform="translate(14.18 26.75) rotate(71.75) scale(11.97 10.39)"><stop offset="0.07" stop-color="#B46490"/><stop offset="0.50" stop-color="#B46391" stop-opacity="0.34"/><stop offset="0.82" stop-color="#B46292" stop-opacity="0"/></radialGradient><radialGradient id="paint12_radial_18_30809" cx="0" cy="0" r="1" gradientUnits="userSpaceOnUse" gradientTransform="translate(17.81 6.90) rotate(88.16) scale(6.81 2.04)"><stop offset="0.30" stop-color="#FFF8DE"/><stop offset="0.69" stop-color="#DEC1B8"/><stop offset="1" stop-color="#D6BAB1" stop-opacity="0"/></radialGradient><radialGradient id="paint13_radial_18_30809" cx="0" cy="0" r="1" gradientUnits="userSpaceOnUse" gradientTransform="translate(10.81 10.25) rotate(110.55) scale(8.01 4.94)"><stop stop-color="#A08E79"/><stop offset="1" stop-color="#9F8C79" stop-opacity="0"/></radialGradient><radialGradient id="paint14_radial_18_30809" cx="0" cy="0" r="1" gradientUnits="userSpaceOnUse" gradientTransform="translate(22 19.18) rotate(65.22) scale(3.57 3.27)"><stop stop-color="#FFFFDD"/><stop offset="1" stop-color="#FFDDC5" stop-opacity="0"/></radialGradient><radialGradient id="paint15_radial_18_30809" cx="0" cy="0" r="1" gradientUnits="userSpaceOnUse" gradientTransform="translate(7.31 20.68) rotate(86.40) scale(9.95 6.01)"><stop stop-color="#C39492"/><stop offset="1" stop-color="#B28683" stop-opacity="0"/></radialGradient><radialGradient id="paint16_radial_18_30809" cx="0" cy="0" r="1" gradientUnits="userSpaceOnUse" gradientTransform="translate(16.07 3.84) rotate(90) scale(1.5 2.05)"><stop stop-color="#C1B197"/><stop offset="1" stop-color="#DAC9AD" stop-opacity="0"/></radialGradient><radialGradient id="paint17_radial_18_30809" cx="0" cy="0" r="1" gradientUnits="userSpaceOnUse" gradientTransform="translate(21.93 12.06) rotate(59.55) scale(8.26 5.10)"><stop offset="0.41" stop-color="#FCE4C1"/><stop offset="1" stop-color="#FFE6C3" stop-opacity="0"/></radialGradient><linearGradient id="paint18_linear_18_30809" x1="14.52" y1="4.96" x2="14.52" y2="10.96" gradientUnits="userSpaceOnUse"><stop stop-color="#C2A9A3"/><stop offset="0.75" stop-color="#C2ACA8"/><stop offset="1" stop-color="#C4C4C4" stop-opacity="0"/></linearGradient><linearGradient id="paint19_linear_18_30809" x1="16.10" y1="5.04" x2="16.10" y2="10.65" gradientUnits="userSpaceOnUse"><stop stop-color="#CDB0AB"/><stop offset="1" stop-color="#D6BEAF" stop-opacity="0"/></linearGradient></defs></svg>