<svg width="32" height="32" viewBox="0 0 32 32" fill="none" xmlns="http://www.w3.org/2000/svg"><g filter="url(#filter0_i_18_15504)"><path d="M5.01 29.93H26.99C28.65 29.93 30 28.58 30 26.92V20C30 18.9 29.11 18 28 18H4C2.9 18 2 18.89 2 20V26.92C2 28.59 3.35 29.93 5.01 29.93Z" fill="url(#paint0_linear_18_15504)"/></g><g filter="url(#filter1_f_18_15504)"><path d="M7.79 28.31C21.49 28.31 25.50 26.44 25.50 25.52C25.50 24.61 20.80 22.74 7.79 22.74V28.31Z" fill="url(#paint1_radial_18_15504)"/></g><g filter="url(#filter2_i_18_15504)"><path d="M24.25 7.87L7.12 25.00C6.92 25.20 6.92 25.52 7.12 25.72C7.32 25.92 7.64 25.92 7.84 25.72L24.97 8.59C25.17 8.39 25.17 8.07 24.97 7.87C24.77 7.67 24.45 7.67 24.25 7.87Z" fill="url(#paint2_linear_18_15504)"/><path d="M24.25 7.87L7.12 25.00C6.92 25.20 6.92 25.52 7.12 25.72C7.32 25.92 7.64 25.92 7.84 25.72L24.97 8.59C25.17 8.39 25.17 8.07 24.97 7.87C24.77 7.67 24.45 7.67 24.25 7.87Z" fill="url(#paint3_radial_18_15504)"/></g><path d="M22.82 25.84C23.58 26.60 24.77 26.66 25.34 25.92C29.24 20.82 28.83 13.46 24.13 8.76C19.43 4.06 12.05 3.64 6.94 7.54C6.20 8.10 6.26 9.29 7.02 10.05L7.78 10.81L15.36 18.46L22.05 25.07L22.82 25.84Z" fill="url(#paint4_linear_18_15504)"/><path d="M22.82 25.84C23.58 26.60 24.77 26.66 25.34 25.92C29.24 20.82 28.83 13.46 24.13 8.76C19.43 4.06 12.05 3.64 6.94 7.54C6.20 8.10 6.26 9.29 7.02 10.05L7.78 10.81L15.36 18.46L22.05 25.07L22.82 25.84Z" fill="url(#paint5_radial_18_15504)"/><path d="M22.82 25.84C23.58 26.60 24.77 26.66 25.34 25.92C29.24 20.82 28.83 13.46 24.13 8.76C19.43 4.06 12.05 3.64 6.94 7.54C6.20 8.10 6.26 9.29 7.02 10.05L7.78 10.81L15.36 18.46L22.05 25.07L22.82 25.84Z" fill="url(#paint6_linear_18_15504)"/><path d="M22.82 25.84C23.58 26.60 24.77 26.66 25.34 25.92C29.24 20.82 28.83 13.46 24.13 8.76C19.43 4.06 12.05 3.64 6.94 7.54C6.20 8.10 6.26 9.29 7.02 10.05L7.78 10.81L15.36 18.46L22.05 25.07L22.82 25.84Z" fill="url(#paint7_linear_18_15504)"/><path d="M22.82 25.84C23.58 26.60 24.77 26.66 25.34 25.92C29.24 20.82 28.83 13.46 24.13 8.76C19.43 4.06 12.05 3.64 6.94 7.54C6.20 8.10 6.26 9.29 7.02 10.05L7.78 10.81L15.36 18.46L22.05 25.07L22.82 25.84Z" fill="url(#paint8_radial_18_15504)"/><path d="M24.23 8.89C28.01 12.86 27.06 20.05 22.04 25.07L18.46 21.49L18.47 21.49C23.42 16.53 25.94 10.97 24.23 8.89Z" fill="url(#paint9_linear_18_15504)"/><path d="M24.23 8.89C28.01 12.86 27.06 20.05 22.04 25.07L18.46 21.49L18.47 21.49C23.42 16.53 25.94 10.97 24.23 8.89Z" fill="url(#paint10_linear_18_15504)"/><path d="M23.95 8.62C19.98 4.83 12.81 5.79 7.79 10.81L11.34 14.39C16.30 9.43 21.87 6.90 23.95 8.62Z" fill="url(#paint11_linear_18_15504)"/><path d="M23.95 8.62C19.98 4.83 12.81 5.79 7.79 10.81L11.34 14.39C16.30 9.43 21.87 6.90 23.95 8.62Z" fill="url(#paint12_linear_18_15504)"/><g filter="url(#filter3_f_18_15504)"><path d="M7.39 25.27L12.97 19.68" stroke="url(#paint13_linear_18_15504)" stroke-width="0.25" stroke-linecap="round"/></g><defs><filter id="filter0_i_18_15504" x="1.85" y="18" width="28.15" height="11.93" filterUnits="userSpaceOnUse" color-interpolation-filters="sRGB"><feFlood flood-opacity="0" result="BackgroundImageFix"/><feBlend mode="normal" in="SourceGraphic" in2="BackgroundImageFix" result="shape"/><feColorMatrix in="SourceAlpha" type="matrix" values="0 0 0 0 0 0 0 0 0 0 0 0 0 0 0 0 0 0 127 0" result="hardAlpha"/><feOffset dx="-0.15"/><feGaussianBlur stdDeviation="0.25"/><feComposite in2="hardAlpha" operator="arithmetic" k2="-1" k3="1"/><feColorMatrix type="matrix" values="0 0 0 0 1 0 0 0 0 0.88 0 0 0 0 0.45 0 0 0 1 0"/><feBlend mode="normal" in2="shape" result="effect1_innerShadow_18_15504"/></filter><filter id="filter1_f_18_15504" x="6.79" y="21.74" width="19.71" height="7.56" filterUnits="userSpaceOnUse" color-interpolation-filters="sRGB"><feFlood flood-opacity="0" result="BackgroundImageFix"/><feBlend mode="normal" in="SourceGraphic" in2="BackgroundImageFix" result="shape"/><feGaussianBlur stdDeviation="0.5" result="effect1_foregroundBlur_18_15504"/></filter><filter id="filter2_i_18_15504" x="6.97" y="7.52" width="18.15" height="18.35" filterUnits="userSpaceOnUse" color-interpolation-filters="sRGB"><feFlood flood-opacity="0" result="BackgroundImageFix"/><feBlend mode="normal" in="SourceGraphic" in2="BackgroundImageFix" result="shape"/><feColorMatrix in="SourceAlpha" type="matrix" values="0 0 0 0 0 0 0 0 0 0 0 0 0 0 0 0 0 0 127 0" result="hardAlpha"/><feOffset dy="-0.2"/><feGaussianBlur stdDeviation="0.25"/><feComposite in2="hardAlpha" operator="arithmetic" k2="-1" k3="1"/><feColorMatrix type="matrix" values="0 0 0 0 0.49 0 0 0 0 0.26 0 0 0 0 0.10 0 0 0 1 0"/><feBlend mode="normal" in2="shape" result="effect1_innerShadow_18_15504"/></filter><filter id="filter3_f_18_15504" x="7.02" y="19.31" width="6.32" height="6.33" filterUnits="userSpaceOnUse" color-interpolation-filters="sRGB"><feFlood flood-opacity="0" result="BackgroundImageFix"/><feBlend mode="normal" in="SourceGraphic" in2="BackgroundImageFix" result="shape"/><feGaussianBlur stdDeviation="0.12" result="effect1_foregroundBlur_18_15504"/></filter><linearGradient id="paint0_linear_18_15504" x1="27.01" y1="29.12" x2="12.02" y2="20.72" gradientUnits="userSpaceOnUse"><stop stop-color="#FFC250"/><stop offset="1" stop-color="#FFB000"/></linearGradient><radialGradient id="paint1_radial_18_15504" cx="0" cy="0" r="1" gradientUnits="userSpaceOnUse" gradientTransform="translate(24.27 25.17) rotate(180) scale(19.22 5.27)"><stop stop-color="#D7731C"/><stop offset="1" stop-color="#D7731C" stop-opacity="0"/></radialGradient><linearGradient id="paint2_linear_18_15504" x1="24.99" y1="7.88" x2="7.14" y2="25.73" gradientUnits="userSpaceOnUse"><stop stop-color="#A66459"/><stop offset="0.58" stop-color="#8A3F42"/><stop offset="1" stop-color="#7B4230"/></linearGradient><radialGradient id="paint3_radial_18_15504" cx="0" cy="0" r="1" gradientUnits="userSpaceOnUse" gradientTransform="translate(25.06 7.81) rotate(139.85) scale(0.92 0.59)"><stop stop-color="#C18E80"/><stop offset="0.99" stop-color="#C18E80" stop-opacity="0"/></radialGradient><linearGradient id="paint4_linear_18_15504" x1="22.12" y1="14.37" x2="13.19" y2="16.43" gradientUnits="userSpaceOnUse"><stop stop-color="#FF6072"/><stop offset="1" stop-color="#EC3A51"/></linearGradient><radialGradient id="paint5_radial_18_15504" cx="0" cy="0" r="1" gradientUnits="userSpaceOnUse" gradientTransform="translate(16.18 19.25) rotate(-23.16) scale(12.84 20.25)"><stop offset="0.76" stop-color="#EA596B" stop-opacity="0"/><stop offset="1" stop-color="#EA596B"/></radialGradient><linearGradient id="paint6_linear_18_15504" x1="13.08" y1="17.67" x2="15.98" y2="14.77" gradientUnits="userSpaceOnUse"><stop stop-color="#CB3A43"/><stop offset="0.48" stop-color="#D92E49"/><stop offset="0.67" stop-color="#D92E49" stop-opacity="0"/></linearGradient><linearGradient id="paint7_linear_18_15504" x1="29.69" y1="23.28" x2="22.65" y2="18.23" gradientUnits="userSpaceOnUse"><stop stop-color="#EE442B"/><stop offset="1" stop-color="#EE442B" stop-opacity="0"/></linearGradient><radialGradient id="paint8_radial_18_15504" cx="0" cy="0" r="1" gradientUnits="userSpaceOnUse" gradientTransform="translate(20.44 17.43) rotate(-119.41) scale(13.48 22.50)"><stop stop-color="#CA3E4B" stop-opacity="0"/><stop offset="0.61" stop-color="#CA3E4B" stop-opacity="0"/><stop offset="1" stop-color="#CA3E4B"/></radialGradient><linearGradient id="paint9_linear_18_15504" x1="15.06" y1="18.18" x2="24.00" y2="9.25" gradientUnits="userSpaceOnUse"><stop stop-color="#E5DFEA"/><stop offset="1" stop-color="#FEFCFF"/></linearGradient><linearGradient id="paint10_linear_18_15504" x1="13.69" y1="19.00" x2="16.47" y2="16.21" gradientUnits="userSpaceOnUse"><stop stop-color="#C9B9C9"/><stop offset="0.61" stop-color="#D4C9DC"/><stop offset="0.81" stop-color="#D4C9DC" stop-opacity="0"/></linearGradient><linearGradient id="paint11_linear_18_15504" x1="15.06" y1="18.18" x2="24.00" y2="9.25" gradientUnits="userSpaceOnUse"><stop stop-color="#E5DFEA"/><stop offset="1" stop-color="#FEFCFF"/></linearGradient><linearGradient id="paint12_linear_18_15504" x1="13.69" y1="19.00" x2="16.47" y2="16.21" gradientUnits="userSpaceOnUse"><stop stop-color="#C9B9C9"/><stop offset="0.61" stop-color="#D4C9DC"/><stop offset="0.81" stop-color="#D4C9DC" stop-opacity="0"/></linearGradient><linearGradient id="paint13_linear_18_15504" x1="7.78" y1="24.66" x2="13.58" y2="23.41" gradientUnits="userSpaceOnUse"><stop stop-color="#7F5951"/><stop offset="1" stop-color="#7F5951" stop-opacity="0"/></linearGradient></defs></svg>